  0
SECTION
  2
HEADER
  9
$ACADVER
  1
AC1027
  9
$ACADMAINTVER
 70
   125
  9
$DWGCODEPAGE
  3
ANSI_1252
  9
$LASTSAVEDBY
  1
yasu
  9
$REQUIREDVERSIONS
160
                 0
  9
$INSBASE
 10
0.0
 20
0.0
 30
0.0
  9
$EXTMIN
 10
-87.67167007746108
 20
-193.8375923627886
 30
0.0
  9
$EXTMAX
 10
187.6862615173739
 20
41.36591072695689
 30
0.0
  9
$LIMMIN
 10
0.0
 20
0.0
  9
$LIMMAX
 10
12.0
 20
9.0
  9
$ORTHOMODE
 70
     0
  9
$REGENMODE
 70
     1
  9
$FILLMODE
 70
     1
  9
$QTEXTMODE
 70
     0
  9
$MIRRTEXT
 70
     0
  9
$LTSCALE
 40
1.0
  9
$ATTMODE
 70
     1
  9
$TEXTSIZE
 40
0.2
  9
$TRACEWID
 40
0.05
  9
$TEXTSTYLE
  7
STANDARD
  9
$CLAYER
  8
0
  9
$CELTYPE
  6
Continuous
  9
$CECOLOR
 62
   256
  9
$CELTSCALE
 40
1.0
  9
$DISPSILH
 70
     0
  9
$DIMSCALE
 40
1.0
  9
$DIMASZ
 40
0.18
  9
$DIMEXO
 40
0.0625
  9
$DIMDLI
 40
0.38
  9
$DIMRND
 40
0.0
  9
$DIMDLE
 40
0.0
  9
$DIMEXE
 40
0.18
  9
$DIMTP
 40
0.0
  9
$DIMTM
 40
0.0
  9
$DIMTXT
 40
0.18
  9
$DIMCEN
 40
0.09
  9
$DIMTSZ
 40
0.0
  9
$DIMTOL
 70
     0
  9
$DIMLIM
 70
     0
  9
$DIMTIH
 70
     1
  9
$DIMTOH
 70
     1
  9
$DIMSE1
 70
     0
  9
$DIMSE2
 70
     0
  9
$DIMTAD
 70
     0
  9
$DIMZIN
 70
     0
  9
$DIMBLK
  1

  9
$DIMASO
 70
     1
  9
$DIMSHO
 70
     1
  9
$DIMPOST
  1

  9
$DIMAPOST
  1

  9
$DIMALT
 70
     0
  9
$DIMALTD
 70
     2
  9
$DIMALTF
 40
25.4
  9
$DIMLFAC
 40
1.0
  9
$DIMTOFL
 70
     0
  9
$DIMTVP
 40
0.0
  9
$DIMTIX
 70
     0
  9
$DIMSOXD
 70
     0
  9
$DIMSAH
 70
     0
  9
$DIMBLK1
  1

  9
$DIMBLK2
  1

  9
$DIMSTYLE
  2
Standard
  9
$DIMCLRD
 70
     0
  9
$DIMCLRE
 70
     0
  9
$DIMCLRT
 70
     0
  9
$DIMTFAC
 40
1.0
  9
$DIMGAP
 40
0.09
  9
$DIMJUST
 70
     0
  9
$DIMSD1
 70
     0
  9
$DIMSD2
 70
     0
  9
$DIMTOLJ
 70
     1
  9
$DIMTZIN
 70
     0
  9
$DIMALTZ
 70
     0
  9
$DIMALTTZ
 70
     0
  9
$DIMUPT
 70
     0
  9
$DIMDEC
 70
     4
  9
$DIMTDEC
 70
     4
  9
$DIMALTU
 70
     2
  9
$DIMALTTD
 70
     2
  9
$DIMTXSTY
  7
STANDARD
  9
$DIMAUNIT
 70
     0
  9
$DIMADEC
 70
     0
  9
$DIMALTRND
 40
0.0
  9
$DIMAZIN
 70
     0
  9
$DIMDSEP
 70
    46
  9
$DIMATFIT
 70
     3
  9
$DIMFRAC
 70
     0
  9
$DIMLDRBLK
  1

  9
$DIMLUNIT
 70
     2
  9
$DIMLWD
 70
    -2
  9
$DIMLWE
 70
    -2
  9
$DIMTMOVE
 70
     0
  9
$DIMFXL
 40
1.0
  9
$DIMFXLON
 70
     0
  9
$DIMJOGANG
 40
0.7853981633974483
  9
$DIMTFILL
 70
     0
  9
$DIMTFILLCLR
 70
     0
  9
$DIMARCSYM
 70
     0
  9
$DIMLTYPE
  6

  9
$DIMLTEX1
  6

  9
$DIMLTEX2
  6

  9
$DIMTXTDIRECTION
 70
     0
  9
$LUNITS
 70
     2
  9
$LUPREC
 70
     4
  9
$SKETCHINC
 40
0.1
  9
$FILLETRAD
 40
0.0
  9
$AUNITS
 70
     0
  9
$AUPREC
 70
     0
  9
$MENU
  1
.
  9
$ELEVATION
 40
0.0
  9
$PELEVATION
 40
0.0
  9
$THICKNESS
 40
0.0
  9
$LIMCHECK
 70
     0
  9
$CHAMFERA
 40
0.0
  9
$CHAMFERB
 40
0.0
  9
$CHAMFERC
 40
0.0
  9
$CHAMFERD
 40
0.0
  9
$SKPOLY
 70
     0
  9
$TDCREATE
 40
2458163.756863426
  9
$TDUCREATE
 40
2458163.381863426
  9
$TDUPDATE
 40
2458163.775000000
  9
$TDUUPDATE
 40
2458163.400000000
  9
$TDINDWG
 40
0.0173842593
  9
$TDUSRTIMER
 40
0.0173842593
  9
$USRTIMER
 70
     1
  9
$ANGBASE
 50
0.0
  9
$ANGDIR
 70
     0
  9
$PDMODE
 70
     0
  9
$PDSIZE
 40
0.0
  9
$PLINEWID
 40
0.0
  9
$SPLFRAME
 70
     0
  9
$SPLINETYPE
 70
     6
  9
$SPLINESEGS
 70
     8
  9
$HANDSEED
  5
102A3
  9
$SURFTAB1
 70
     6
  9
$SURFTAB2
 70
     6
  9
$SURFTYPE
 70
     6
  9
$SURFU
 70
     6
  9
$SURFV
 70
     6
  9
$UCSBASE
  2

  9
$UCSNAME
  2

  9
$UCSORG
 10
0.0
 20
0.0
 30
0.0
  9
$UCSXDIR
 10
1.0
 20
0.0
 30
0.0
  9
$UCSYDIR
 10
0.0
 20
1.0
 30
0.0
  9
$UCSORTHOREF
  2

  9
$UCSORTHOVIEW
 70
     0
  9
$UCSORGTOP
 10
0.0
 20
0.0
 30
0.0
  9
$UCSORGBOTTOM
 10
0.0
 20
0.0
 30
0.0
  9
$UCSORGLEFT
 10
0.0
 20
0.0
 30
0.0
  9
$UCSORGRIGHT
 10
0.0
 20
0.0
 30
0.0
  9
$UCSORGFRONT
 10
0.0
 20
0.0
 30
0.0
  9
$UCSORGBACK
 10
0.0
 20
0.0
 30
0.0
  9
$PUCSBASE
  2

  9
$PUCSNAME
  2

  9
$PUCSORG
 10
0.0
 20
0.0
 30
0.0
  9
$PUCSXDIR
 10
1.0
 20
0.0
 30
0.0
  9
$PUCSYDIR
 10
0.0
 20
1.0
 30
0.0
  9
$PUCSORTHOREF
  2

  9
$PUCSORTHOVIEW
 70
     0
  9
$PUCSORGTOP
 10
0.0
 20
0.0
 30
0.0
  9
$PUCSORGBOTTOM
 10
0.0
 20
0.0
 30
0.0
  9
$PUCSORGLEFT
 10
0.0
 20
0.0
 30
0.0
  9
$PUCSORGRIGHT
 10
0.0
 20
0.0
 30
0.0
  9
$PUCSORGFRONT
 10
0.0
 20
0.0
 30
0.0
  9
$PUCSORGBACK
 10
0.0
 20
0.0
 30
0.0
  9
$USERI1
 70
     0
  9
$USERI2
 70
     0
  9
$USERI3
 70
     0
  9
$USERI4
 70
     0
  9
$USERI5
 70
     0
  9
$USERR1
 40
0.0
  9
$USERR2
 40
0.0
  9
$USERR3
 40
0.0
  9
$USERR4
 40
0.0
  9
$USERR5
 40
0.0
  9
$WORLDVIEW
 70
     1
  9
$SHADEDGE
 70
     3
  9
$SHADEDIF
 70
    70
  9
$TILEMODE
 70
     1
  9
$MAXACTVP
 70
    64
  9
$PINSBASE
 10
0.0
 20
0.0
 30
0.0
  9
$PLIMCHECK
 70
     0
  9
$PEXTMIN
 10
1.000000000000000E+20
 20
1.000000000000000E+20
 30
1.000000000000000E+20
  9
$PEXTMAX
 10
-1.000000000000000E+20
 20
-1.000000000000000E+20
 30
-1.000000000000000E+20
  9
$PLIMMIN
 10
0.0
 20
0.0
  9
$PLIMMAX
 10
12.0
 20
9.0
  9
$UNITMODE
 70
     0
  9
$VISRETAIN
 70
     1
  9
$PLINEGEN
 70
     0
  9
$PSLTSCALE
 70
     1
  9
$TREEDEPTH
 70
  3020
  9
$CMLSTYLE
  2
Standard
  9
$CMLJUST
 70
     0
  9
$CMLSCALE
 40
1.0
  9
$PROXYGRAPHICS
 70
     1
  9
$MEASUREMENT
 70
     0
  9
$CELWEIGHT
370
    -1
  9
$ENDCAPS
280
     0
  9
$JOINSTYLE
280
     0
  9
$LWDISPLAY
290
     0
  9
$INSUNITS
 70
     4
  9
$HYPERLINKBASE
  1

  9
$STYLESHEET
  1

  9
$XEDIT
290
     1
  9
$CEPSNTYPE
380
     0
  9
$PSTYLEMODE
290
     1
  9
$FINGERPRINTGUID
  2
{932063C8-DEA3-684E-AF02-B0A09A6A2CA5}
  9
$VERSIONGUID
  2
{8AF667EE-AB03-B043-9F7D-18FAF8FF888E}
  9
$EXTNAMES
290
     1
  9
$PSVPSCALE
 40
0.0
  9
$OLESTARTUP
290
     0
  9
$SORTENTS
280
   127
  9
$INDEXCTL
280
     0
  9
$HIDETEXT
280
     0
  9
$XCLIPFRAME
280
     2
  9
$HALOGAP
280
     0
  9
$OBSCOLOR
 70
   257
  9
$OBSLTYPE
280
     0
  9
$INTERSECTIONDISPLAY
280
     0
  9
$INTERSECTIONCOLOR
 70
   257
  9
$DIMASSOC
280
     1
  9
$PROJECTNAME
  1

  9
$CAMERADISPLAY
290
     0
  9
$LENSLENGTH
 40
50.0
  9
$CAMERAHEIGHT
 40
0.0
  9
$STEPSPERSEC
 40
2.0
  9
$STEPSIZE
 40
6.0
  9
$3DDWFPREC
 40
2.0
  9
$PSOLWIDTH
 40
0.25
  9
$PSOLHEIGHT
 40
4.0
  9
$LOFTANG1
 40
1.570796326794896
  9
$LOFTANG2
 40
1.570796326794896
  9
$LOFTMAG1
 40
0.0
  9
$LOFTMAG2
 40
0.0
  9
$LOFTPARAM
 70
     7
  9
$LOFTNORMALS
280
     1
  9
$LATITUDE
 40
37.795
  9
$LONGITUDE
 40
-122.394
  9
$NORTHDIRECTION
 40
0.0
  9
$TIMEZONE
 70
 -8000
  9
$LIGHTGLYPHDISPLAY
280
     1
  9
$TILEMODELIGHTSYNCH
280
     1
  9
$CMATERIAL
347
10005
  9
$SOLIDHIST
280
     0
  9
$SHOWHIST
280
     1
  9
$DWFFRAME
280
     2
  9
$DGNFRAME
280
     0
  9
$REALWORLDSCALE
290
     1
  9
$INTERFERECOLOR
 62
     1
  9
$INTERFEREOBJVS
345
10027
  9
$INTERFEREVPVS
346
10024
  9
$CSHADOW
280
     0
  9
$SHADOWPLANELOCATION
 40
0.0
  0
ENDSEC
  0
SECTION
  2
CLASSES
  0
CLASS
  1
ACDBDICTIONARYWDFLT
  2
AcDbDictionaryWithDefault
  3
ObjectDBX Classes
 90
        0
 91
        1
280
     0
281
     0
  0
CLASS
  1
MATERIAL
  2
AcDbMaterial
  3
ObjectDBX Classes
 90
     1153
 91
        3
280
     0
281
     0
  0
CLASS
  1
VISUALSTYLE
  2
AcDbVisualStyle
  3
ObjectDBX Classes
 90
     4095
 91
       24
280
     0
281
     0
  0
CLASS
  1
TABLESTYLE
  2
AcDbTableStyle
  3
ObjectDBX Classes
 90
     4095
 91
        1
280
     0
281
     0
  0
CLASS
  1
SCALE
  2
AcDbScale
  3
ObjectDBX Classes
 90
     1153
 91
       17
280
     0
281
     0
  0
CLASS
  1
MLEADERSTYLE
  2
AcDbMLeaderStyle
  3
ACDB_MLEADERSTYLE_CLASS
 90
     4095
 91
        1
280
     0
281
     0
  0
CLASS
  1
ACDBSECTIONVIEWSTYLE
  2
AcDbSectionViewStyle
  3
ObjectDBX Classes
 90
     1025
 91
        1
280
     0
281
     0
  0
CLASS
  1
ACDBDETAILVIEWSTYLE
  2
AcDbDetailViewStyle
  3
ObjectDBX Classes
 90
     1025
 91
        1
280
     0
281
     0
  0
CLASS
  1
DICTIONARYVAR
  2
AcDbDictionaryVar
  3
ObjectDBX Classes
 90
        0
 91
       27
280
     0
281
     0
  0
CLASS
  1
CELLSTYLEMAP
  2
AcDbCellStyleMap
  3
ObjectDBX Classes
 90
     1152
 91
        1
280
     0
281
     0
  0
ENDSEC
  0
SECTION
  2
TABLES
  0
TABLE
  2
VPORT
  5
8
330
0
100
AcDbSymbolTable
 70
     1
1001
ACAD
1000
DbSaveVer
1071
       69
  0
VPORT
  5
10059
330
8
100
AcDbSymbolTableRecord
100
AcDbViewportTableRecord
  2
*Active
 70
     0
 10
0.0
 20
0.0
 11
1.0
 21
1.0
 12
124.6874760611391
 22
-78.03376582248347
 13
0.0
 23
0.0
 14
1.0
 24
1.0
 15
0.0
 25
0.0
 16
0.0
 26
0.0
 36
1.0
 17
0.0
 27
0.0
 37
0.0
 40
413.5005458148903
 41
1.295180722891566
 42
50.0
 43
0.0
 44
0.0
 50
0.0
 51
0.0
 71
     0
 72
  1000
 73
     1
 74
     3
 75
     0
 76
     0
 77
     0
 78
     0
281
     0
 65
     1
110
0.0
120
0.0
130
0.0
111
1.0
121
0.0
131
0.0
112
0.0
122
1.0
132
0.0
 79
     0
146
0.0
348
10023
 60
     3
 61
     5
292
     1
282
     1
141
0.0
142
0.0
 63
   250
421
  3355443
1001
ACAD_NAV_VCDISPLAY
1070
     1
  0
ENDTAB
  0
TABLE
  2
LTYPE
  5
5
330
0
100
AcDbSymbolTable
 70
     1
  0
LTYPE
  5
14
330
5
100
AcDbSymbolTableRecord
100
AcDbLinetypeTableRecord
  2
BYBLOCK
 70
     0
  3

 72
    65
 73
     0
 40
0.0
  0
LTYPE
  5
15
330
5
100
AcDbSymbolTableRecord
100
AcDbLinetypeTableRecord
  2
BYLAYER
 70
     0
  3

 72
    65
 73
     0
 40
0.0
  0
LTYPE
  5
10001
330
5
100
AcDbSymbolTableRecord
100
AcDbLinetypeTableRecord
  2
Continuous
 70
     0
  3
Solid line
 72
    65
 73
     0
 40
0.0
  0
ENDTAB
  0
TABLE
  2
LAYER
  5
2
102
{ACAD_XDICTIONARY
360
10250
102
}
330
0
100
AcDbSymbolTable
 70
     1
  0
LAYER
  5
50
102
{ACAD_XDICTIONARY
360
1024B
102
}
330
2
100
AcDbSymbolTableRecord
100
AcDbLayerTableRecord
  2
0
 70
     0
 62
     7
  6
Continuous
370
    -3
390
10003
347
10015
348
0
  0
ENDTAB
  0
TABLE
  2
STYLE
  5
3
330
0
100
AcDbSymbolTable
 70
     1
  0
STYLE
  5
11
330
3
100
AcDbSymbolTableRecord
100
AcDbTextStyleTableRecord
  2
STANDARD
 70
     0
 40
0.0
 41
1.0
 50
0.0
 71
     0
 42
0.2
  3

  4

  0
ENDTAB
  0
TABLE
  2
VIEW
  5
6
330
0
100
AcDbSymbolTable
 70
     1
  0
ENDTAB
  0
TABLE
  2
UCS
  5
7
330
0
100
AcDbSymbolTable
 70
     0
  0
ENDTAB
  0
TABLE
  2
APPID
  5
9
330
0
100
AcDbSymbolTable
 70
     3
  0
APPID
  5
12
330
9
100
AcDbSymbolTableRecord
100
AcDbRegAppTableRecord
  2
ACAD
 70
     0
  0
APPID
  5
10058
330
9
100
AcDbSymbolTableRecord
100
AcDbRegAppTableRecord
  2
ACAD_NAV_VCDISPLAY
 70
     0
  0
APPID
  5
100F5
330
9
100
AcDbSymbolTableRecord
100
AcDbRegAppTableRecord
  2
ACAD_EXEMPT_FROM_CAD_STANDARDS
 70
     0
  0
ENDTAB
  0
TABLE
  2
DIMSTYLE
  5
A
330
0
100
AcDbSymbolTable
 70
     1
100
AcDbDimStyleTable
 71
     1
340
10053
  0
DIMSTYLE
105
10053
330
A
100
AcDbSymbolTableRecord
100
AcDbDimStyleTableRecord
  2
Standard
 70
     0
340
11
  0
ENDTAB
  0
TABLE
  2
BLOCK_RECORD
  5
1
330
0
100
AcDbSymbolTable
 70
     1
  0
BLOCK_RECORD
  5
1F
330
1
100
AcDbSymbolTableRecord
100
AcDbBlockTableRecord
  2
*MODEL_SPACE
340
10055
 70
     0
280
     1
281
     0
  0
BLOCK_RECORD
  5
1B
330
1
100
AcDbSymbolTableRecord
100
AcDbBlockTableRecord
  2
*PAPER_SPACE
340
10056
 70
     0
280
     1
281
     0
  0
BLOCK_RECORD
  5
10150
330
1
100
AcDbSymbolTableRecord
100
AcDbBlockTableRecord
  2
A$C42EC4C51
340
0
 70
     4
280
     1
281
     0
  0
ENDTAB
  0
ENDSEC
  0
SECTION
  2
BLOCKS
  0
BLOCK
  5
20
330
1F
100
AcDbEntity
  8
0
100
AcDbBlockBegin
  2
*MODEL_SPACE
 70
     0
 10
0.0
 20
0.0
 30
0.0
  3
*MODEL_SPACE
  1

  0
ENDBLK
  5
21
330
1F
100
AcDbEntity
  8
0
100
AcDbBlockEnd
  0
BLOCK
  5
1C
330
1B
100
AcDbEntity
 67
     1
  8
0
100
AcDbBlockBegin
  2
*PAPER_SPACE
 70
     0
 10
0.0
 20
0.0
 30
0.0
  3
*PAPER_SPACE
  1

  0
ENDBLK
  5
1D
330
1B
100
AcDbEntity
 67
     1
  8
0
100
AcDbBlockEnd
  0
BLOCK
  5
1015D
330
10150
100
AcDbEntity
  8
0
100
AcDbBlockBegin
  2
A$C42EC4C51
 70
     0
 10
0.0
 20
0.0
 30
0.0
  3
A$C42EC4C51
  1

  0
LWPOLYLINE
  5
10151
330
10150
100
AcDbEntity
  8
0
100
AcDbPolyline
 90
        4
 70
     1
 43
0.0
 10
8.929564872616168
 20
59.99999999715948
 10
8.929564872616168
 20
29.99999946773761
 42
1.0
 10
21.07043555414637
 20
29.99999946773755
 10
21.07043555414637
 20
59.99999999715945
 42
1.0
  0
CIRCLE
  5
10152
330
10150
100
AcDbEntity
  8
0
100
AcDbCircle
 10
25.50000021338116
 20
25.99999999715948
 30
0.0
 40
0.9999999999999964
  0
LWPOLYLINE
  5
10153
330
10150
100
AcDbEntity
  8
0
100
AcDbPolyline
 90
        4
 70
     1
 43
0.0
 10
5.905100652385215
 20
62.97265891350526
 10
3.905100652385215
 20
62.97265891350526
 10
3.905100652385186
 20
52.97265891350526
 10
5.905100652385186
 20
52.97265891350526
  0
CIRCLE
  5
10154
330
10150
100
AcDbEntity
  8
0
100
AcDbCircle
 10
25.50000021338121
 20
4.999999997159477
 30
0.0
 40
1.0
  0
LWPOLYLINE
  5
10155
330
10150
100
AcDbEntity
  8
0
100
AcDbPolyline
 90
        4
 70
     1
 43
0.0
 10
17.8870740162136
 20
71.99999992265365
 10
17.8870740162136
 20
69.99999992265364
 10
25.3623709147069
 20
69.99999992265364
 10
25.3623709147069
 20
71.99999992265365
  0
LWPOLYLINE
  5
10156
330
10150
100
AcDbEntity
  8
0
100
AcDbPolyline
 90
        4
 70
     1
 43
0.0
 10
3.905100652385186
 20
42.97265891350526
 10
3.905100652385186
 20
32.97265891350526
 10
5.905100652385186
 20
32.97265891350526
 10
5.905100652385186
 20
42.97265891350526
  0
CIRCLE
  5
10157
330
10150
100
AcDbEntity
  8
0
100
AcDbCircle
 10
4.500000213381326
 20
4.999999997159477
 30
0.0
 40
1.0
  0
LWPOLYLINE
  5
10158
330
10150
100
AcDbEntity
  8
0
100
AcDbPolyline
 90
        4
 70
     1
 43
0.0
 10
26.09489977437736
 20
62.97265891350526
 10
24.09489977437735
 20
62.97265891350526
 10
24.09489977437735
 20
52.97265891350526
 10
26.09489977437736
 20
52.97265891350526
  0
CIRCLE
  5
10159
330
10150
100
AcDbEntity
  8
0
100
AcDbCircle
 10
4.500000213381383
 20
25.99999999715948
 30
0.0
 40
0.9999999999999964
  0
LWPOLYLINE
  5
1015A
330
10150
100
AcDbEntity
  8
0
100
AcDbPolyline
 90
        4
 70
     1
 43
0.0
 10
12.11292641054896
 20
69.99999992265364
 10
12.11292641054896
 20
71.99999992265365
 10
4.637629512055639
 20
71.99999992265365
 10
4.637629512055639
 20
69.99999992265364
  0
LWPOLYLINE
  5
1015B
330
10150
100
AcDbEntity
  8
0
100
AcDbPolyline
 90
        4
 70
     1
 43
0.0
 10
24.09489977437735
 20
42.97265891350526
 10
24.09489977437735
 20
32.97265891350526
 10
26.09489977437736
 20
32.97265891350526
 10
26.09489977437736
 20
42.97265891350526
  0
LWPOLYLINE
  5
1015C
330
10150
100
AcDbEntity
  8
0
100
AcDbPolyline
 90
       12
 70
     1
 43
0.0
 10
-0.0000000101361195
 20
71.99999992265365
 42
-0.414213562373099
 10
2.999999989863852
 20
74.99999992265364
 10
27.00000043689869
 20
74.99999992265364
 42
-0.4142135623730959
 10
30.00000043689869
 20
71.99999992265365
 10
30.00000043689869
 20
2.999999922653671
 42
-0.4142135623730948
 10
27.00000043689869
 20
-0.0000000773463285
 10
24.8704818984607
 20
-0.0000000773463285
 42
-0.4740568247854632
 10
21.93023312855914
 20
3.595765959863172
 42
1.222946192178792
 10
8.069767298203402
 20
3.595765959863172
 42
-0.4740568247854632
 10
5.129518528301844
 20
-0.0000000773463285
 10
2.999999989863852
 20
-0.0000000773463285
 42
-0.4142135623730949
 10
-0.0000000101361479
 20
2.999999922653671
  0
ENDBLK
  5
1015E
330
10150
100
AcDbEntity
  8
0
100
AcDbBlockEnd
  0
ENDSEC
  0
SECTION
  2
ENTITIES
  0
LWPOLYLINE
  5
10060
330
1F
100
AcDbEntity
  8
0
100
AcDbPolyline
 90
       12
 70
     1
 43
0.0
 10
-18.20195219450881
 20
11.3659107269569
 10
-18.20195219450881
 20
41.36591072695689
 10
-8.201952194508727
 20
41.36591072695689
 10
-8.201952194508727
 20
39.3659107269569
 10
1.798047805491272
 20
39.3659107269569
 10
1.798047805491272
 20
41.36591072695689
 10
11.79804780549126
 20
41.36591072695689
 10
11.79804780549126
 20
11.3659107269569
 10
1.798047805491194
 20
11.3659107269569
 10
1.798047805491194
 20
13.36591072695689
 10
-8.201952194508805
 20
13.36591072695689
 10
-8.201952194508805
 20
11.36591072695689
  0
CIRCLE
  5
10067
330
1F
100
AcDbEntity
  8
0
100
AcDbCircle
 10
-2.017148386336447
 20
-8.739165882927338
 30
0.0
 40
9.0
  0
LWPOLYLINE
  5
10068
330
1F
100
AcDbEntity
  8
0
100
AcDbPolyline
 90
       20
 70
     1
 43
0.0
 10
10.98285161366355
 20
-19.10153658425294
 10
10.98285161366355
 20
-23.73916610644471
 10
-15.01714838633644
 20
-23.7391661064448
 10
-15.01714838633644
 20
-19.10153658425302
 10
-17.01714838633644
 20
-19.10153658425302
 10
-17.01714838633645
 20
-11.62623968575969
 10
-15.01714838633644
 20
-11.62623968575968
 10
-15.01714838633644
 20
-5.852092080095072
 10
-17.01714838633645
 20
-5.852092080095072
 10
-17.01714838633645
 20
1.623204818398264
 10
-15.01714838633645
 20
1.623204818398264
 10
-15.01714838633645
 20
6.260834340590037
 10
10.98285161366355
 20
6.260834340590122
 10
10.98285161366355
 20
1.623204818398345
 10
12.98285161366355
 20
1.623204818398345
 10
12.98285161366355
 20
-5.852092080094987
 10
10.98285161366355
 20
-5.852092080094987
 10
10.98285161366355
 20
-11.6262396857596
 10
12.98285161366355
 20
-11.6262396857596
 10
12.98285161366355
 20
-19.10153658425294
  0
LWPOLYLINE
  5
10079
330
1F
100
AcDbEntity
  8
0
100
AcDbPolyline
 90
        4
 70
     1
 43
0.0
 10
-0.8097515145735343
 20
-52.49374929175457
 10
52.30513014098329
 20
-52.49374929175457
 42
1.0
 10
52.30513014098329
 20
-40.35287861022435
 10
-0.8097515145735343
 20
-40.35287861022435
 42
1.0
  0
LWPOLYLINE
  5
1007A
330
1F
100
AcDbEntity
  8
0
100
AcDbPolyline
 90
        4
 70
     1
 43
0.0
 10
-12.6948697845109
 20
-49.31038775382177
 10
-14.69486978451086
 20
-49.31038775382177
 10
-14.69486978451086
 20
-56.78568465231511
 10
-12.6948697845109
 20
-56.78568465231511
  0
LWPOLYLINE
  5
1007B
330
1F
100
AcDbEntity
  8
0
100
AcDbPolyline
 90
        4
 70
     1
 43
0.0
 10
27.98365070662583
 20
-57.51821351198555
 10
37.98365070662585
 20
-57.51821351198555
 10
37.98365070662585
 20
-55.51821351198555
 10
27.98365070662583
 20
-55.51821351198555
  0
LWPOLYLINE
  5
1007C
330
1F
100
AcDbEntity
  8
0
100
AcDbPolyline
 90
        4
 70
     1
 43
0.0
 10
7.983650706625837
 20
-35.32841438999339
 10
7.983650706625837
 20
-37.32841438999339
 10
17.98365070662583
 20
-37.32841438999339
 10
17.98365070662583
 20
-35.32841438999339
  0
CIRCLE
  5
1007D
330
1F
100
AcDbEntity
  8
0
100
AcDbCircle
 10
56.30513014098328
 20
-56.92331395098936
 30
0.0
 40
0.9999999999999964
  0
CIRCLE
  5
1007E
330
1F
100
AcDbEntity
  8
0
100
AcDbCircle
 10
56.30513014098328
 20
-35.92331395098957
 30
0.0
 40
0.9999999999999964
  0
LWPOLYLINE
  5
1007F
330
1F
100
AcDbEntity
  8
0
100
AcDbPolyline
 90
        4
 70
     1
 43
0.0
 10
7.983650706625837
 20
-55.51821351198555
 10
7.983650706625837
 20
-57.51821351198555
 10
17.98365070662583
 20
-57.51821351198555
 10
17.98365070662583
 20
-55.51821351198555
  0
LWPOLYLINE
  5
10080
330
1F
100
AcDbEntity
  8
0
100
AcDbPolyline
 90
        4
 70
     1
 43
0.0
 10
-14.69486978451086
 20
-43.53624014815716
 10
-12.6948697845109
 20
-43.53624014815716
 10
-12.6948697845109
 20
-36.06094324966382
 10
-14.69486978451086
 20
-36.06094324966382
  0
CIRCLE
  5
10081
330
1F
100
AcDbEntity
  8
0
100
AcDbCircle
 10
77.30513014098329
 20
-35.92331395098954
 30
0.0
 40
1.0
  0
LWPOLYLINE
  5
10082
330
1F
100
AcDbEntity
  8
0
100
AcDbPolyline
 90
        4
 70
     1
 43
0.0
 10
27.98365070662583
 20
-37.32841438999339
 10
37.98365070662585
 20
-37.32841438999339
 10
37.98365070662585
 20
-35.32841438999339
 10
27.98365070662583
 20
-35.32841438999339
  0
CIRCLE
  5
10083
330
1F
100
AcDbEntity
  8
0
100
AcDbCircle
 10
77.30513014098329
 20
-56.92331395098939
 30
0.0
 40
1.0
  0
LWPOLYLINE
  5
10084
330
1F
100
AcDbEntity
  8
0
100
AcDbPolyline
 90
       12
 70
     1
 43
0.0
 10
-14.69486978451086
 20
-61.42331417450687
 42
-0.4142135623730937
 10
-17.6948697845109
 20
-58.42331417450688
 10
-17.6948697845109
 20
-34.42331372747205
 42
-0.414213562373092
 10
-14.6948697845109
 20
-31.42331372747205
 10
79.3051302154891
 20
-31.42331372747205
 42
-0.4142135623730951
 10
82.3051302154891
 20
-34.42331372747205
 10
82.3051302154891
 20
-36.55283226591004
 42
-0.4740568247854632
 10
78.7093641782796
 20
-39.49308103581161
 42
1.222946192178792
 10
78.7093641782796
 20
-53.35354686616733
 42
-0.4740568247854632
 10
82.3051302154891
 20
-56.2937956360689
 10
82.3051302154891
 20
-58.42331417450688
 42
-0.4142135623730958
 10
79.3051302154891
 20
-61.42331417450688
  0
LWPOLYLINE
  5
10095
330
1F
100
AcDbEntity
  8
0
100
AcDbPolyline
 90
        4
 70
     1
 43
0.0
 10
-1.135581370485297
 20
-87.9932326076379
 10
51.97930028507153
 20
-87.9932326076379
 42
1.0
 10
51.97930028507153
 20
-75.85236192610768
 10
-1.135581370485297
 20
-75.85236192610768
 42
1.0
  0
LWPOLYLINE
  5
10096
330
1F
100
AcDbEntity
  8
0
100
AcDbPolyline
 90
        4
 70
     1
 43
0.0
 10
-13.02069964042266
 20
-84.80987106970507
 10
-15.02069964042262
 20
-84.80987106970507
 10
-15.02069964042262
 20
-92.28516796819842
 10
-13.02069964042266
 20
-92.28516796819842
  0
LWPOLYLINE
  5
10097
330
1F
100
AcDbEntity
  8
0
100
AcDbPolyline
 90
        4
 70
     1
 43
0.0
 10
27.65782085071407
 20
-93.01769682786886
 10
37.65782085071408
 20
-93.01769682786886
 10
37.65782085071408
 20
-91.01769682786885
 10
27.65782085071407
 20
-91.01769682786885
  0
LWPOLYLINE
  5
10098
330
1F
100
AcDbEntity
  8
0
100
AcDbPolyline
 90
        4
 70
     1
 43
0.0
 10
7.657820850714074
 20
-70.8278977058767
 10
7.657820850714074
 20
-72.82789770587669
 10
17.65782085071406
 20
-72.82789770587669
 10
17.65782085071406
 20
-70.8278977058767
  0
CIRCLE
  5
10099
330
1F
100
AcDbEntity
  8
0
100
AcDbCircle
 10
55.97930028507152
 20
-92.42279726687268
 30
0.0
 40
0.9999999999999964
  0
CIRCLE
  5
1009A
330
1F
100
AcDbEntity
  8
0
100
AcDbCircle
 10
55.97930028507152
 20
-71.42279726687288
 30
0.0
 40
0.9999999999999964
  0
LWPOLYLINE
  5
1009B
330
1F
100
AcDbEntity
  8
0
100
AcDbPolyline
 90
        4
 70
     1
 43
0.0
 10
7.657820850714074
 20
-91.01769682786885
 10
7.657820850714074
 20
-93.01769682786886
 10
17.65782085071406
 20
-93.01769682786886
 10
17.65782085071406
 20
-91.01769682786885
  0
LWPOLYLINE
  5
1009C
330
1F
100
AcDbEntity
  8
0
100
AcDbPolyline
 90
        4
 70
     1
 43
0.0
 10
-15.02069964042262
 20
-79.03572346404047
 10
-13.02069964042266
 20
-79.03572346404047
 10
-13.02069964042266
 20
-71.56042656554713
 10
-15.02069964042262
 20
-71.56042656554713
  0
CIRCLE
  5
1009D
330
1F
100
AcDbEntity
  8
0
100
AcDbCircle
 10
76.97930028507153
 20
-71.42279726687284
 30
0.0
 40
1.0
  0
LWPOLYLINE
  5
1009E
330
1F
100
AcDbEntity
  8
0
100
AcDbPolyline
 90
        4
 70
     1
 43
0.0
 10
27.65782085071407
 20
-72.82789770587669
 10
37.65782085071408
 20
-72.82789770587669
 10
37.65782085071408
 20
-70.8278977058767
 10
27.65782085071407
 20
-70.8278977058767
  0
CIRCLE
  5
1009F
330
1F
100
AcDbEntity
  8
0
100
AcDbCircle
 10
76.97930028507153
 20
-92.4227972668727
 30
0.0
 40
1.0
  0
LWPOLYLINE
  5
100A0
330
1F
100
AcDbEntity
  8
0
100
AcDbPolyline
 90
       12
 70
     1
 43
0.0
 10
-15.02069964042262
 20
-96.9227974903902
 42
-0.4142135623730937
 10
-18.02069964042266
 20
-93.92279749039019
 10
-18.02069964042266
 20
-69.92279704335536
 42
-0.414213562373092
 10
-15.02069964042266
 20
-66.92279704335536
 10
78.97930035957734
 20
-66.92279704335536
 42
-0.4142135623730951
 10
81.97930035957734
 20
-69.92279704335536
 10
81.97930035957734
 20
-72.05231558179335
 42
-0.4740568247854632
 10
78.38353432236783
 20
-74.99256435169491
 42
1.222946192178792
 10
78.38353432236783
 20
-88.85303018205064
 42
-0.4740568247854632
 10
81.97930035957734
 20
-91.79327895195219
 10
81.97930035957734
 20
-93.92279749039019
 42
-0.4142135623730958
 10
78.97930035957734
 20
-96.9227974903902
  0
LWPOLYLINE
  5
100B1
330
1F
100
AcDbEntity
  8
0
100
AcDbPolyline
 90
        4
 70
     1
 43
0.0
 10
-3.707682640513681
 20
-127.3004545480183
 10
49.40719901504315
 20
-127.3004545480183
 42
1.0
 10
49.40719901504315
 20
-115.1595838664881
 10
-3.707682640513681
 20
-115.1595838664881
 42
1.0
  0
LWPOLYLINE
  5
100B2
330
1F
100
AcDbEntity
  8
0
100
AcDbPolyline
 90
        4
 70
     1
 43
0.0
 10
-15.59280091045105
 20
-124.1170930100855
 10
-17.592800910451
 20
-124.1170930100855
 10
-17.592800910451
 20
-131.5923899085788
 10
-15.59280091045105
 20
-131.5923899085788
  0
LWPOLYLINE
  5
100B3
330
1F
100
AcDbEntity
  8
0
100
AcDbPolyline
 90
        4
 70
     1
 43
0.0
 10
25.08571958068568
 20
-132.3249187682493
 10
35.0857195806857
 20
-132.3249187682493
 10
35.0857195806857
 20
-130.3249187682493
 10
25.08571958068568
 20
-130.3249187682493
  0
LWPOLYLINE
  5
100B4
330
1F
100
AcDbEntity
  8
0
100
AcDbPolyline
 90
        4
 70
     1
 43
0.0
 10
5.08571958068569
 20
-110.1351196462571
 10
5.08571958068569
 20
-112.1351196462571
 10
15.08571958068568
 20
-112.1351196462571
 10
15.08571958068568
 20
-110.1351196462571
  0
CIRCLE
  5
100B5
330
1F
100
AcDbEntity
  8
0
100
AcDbCircle
 10
53.40719901504313
 20
-131.7300192072531
 30
0.0
 40
0.9999999999999964
  0
CIRCLE
  5
100B6
330
1F
100
AcDbEntity
  8
0
100
AcDbCircle
 10
53.40719901504313
 20
-110.7300192072533
 30
0.0
 40
0.9999999999999964
  0
LWPOLYLINE
  5
100B7
330
1F
100
AcDbEntity
  8
0
100
AcDbPolyline
 90
        4
 70
     1
 43
0.0
 10
5.08571958068569
 20
-130.3249187682493
 10
5.08571958068569
 20
-132.3249187682493
 10
15.08571958068568
 20
-132.3249187682493
 10
15.08571958068568
 20
-130.3249187682493
  0
LWPOLYLINE
  5
100B8
330
1F
100
AcDbEntity
  8
0
100
AcDbPolyline
 90
        4
 70
     1
 43
0.0
 10
-17.592800910451
 20
-118.3429454044209
 10
-15.59280091045105
 20
-118.3429454044209
 10
-15.59280091045105
 20
-110.8676485059275
 10
-17.592800910451
 20
-110.8676485059275
  0
CIRCLE
  5
100B9
330
1F
100
AcDbEntity
  8
0
100
AcDbCircle
 10
74.40719901504315
 20
-110.7300192072532
 30
0.0
 40
1.0
  0
LWPOLYLINE
  5
100BA
330
1F
100
AcDbEntity
  8
0
100
AcDbPolyline
 90
        4
 70
     1
 43
0.0
 10
25.08571958068568
 20
-112.1351196462571
 10
35.0857195806857
 20
-112.1351196462571
 10
35.0857195806857
 20
-110.1351196462571
 10
25.08571958068568
 20
-110.1351196462571
  0
CIRCLE
  5
100BB
330
1F
100
AcDbEntity
  8
0
100
AcDbCircle
 10
74.40719901504315
 20
-131.7300192072531
 30
0.0
 40
1.0
  0
LWPOLYLINE
  5
100BC
330
1F
100
AcDbEntity
  8
0
100
AcDbPolyline
 90
       12
 70
     1
 43
0.0
 10
-17.592800910451
 20
-136.2300194307706
 42
-0.4142135623730937
 10
-20.59280091045105
 20
-133.2300194307706
 10
-20.59280091045105
 20
-109.2300189837358
 42
-0.414213562373092
 10
-17.59280091045105
 20
-106.2300189837358
 10
76.40719908954896
 20
-106.2300189837358
 42
-0.4142135623730951
 10
79.40719908954895
 20
-109.2300189837358
 10
79.40719908954895
 20
-111.3595375221738
 42
-0.4740568247854632
 10
75.81143305233945
 20
-114.2997862920753
 42
1.222946192178792
 10
75.81143305233945
 20
-128.160252122431
 42
-0.4740568247854632
 10
79.40719908954895
 20
-131.1005008923326
 10
79.40719908954895
 20
-133.2300194307706
 42
-0.4142135623730958
 10
76.40719908954896
 20
-136.2300194307706
  0
LWPOLYLINE
  5
100CD
330
1F
100
AcDbEntity
  8
0
100
AcDbPolyline
 90
        4
 70
     1
 43
0.0
 10
-3.699999658360709
 20
-165.2331649282082
 10
49.41488199719612
 20
-165.2331649282082
 42
1.0
 10
49.41488199719612
 20
-153.092294246678
 10
-3.699999658360709
 20
-153.092294246678
 42
1.0
  0
LWPOLYLINE
  5
100CE
330
1F
100
AcDbEntity
  8
0
100
AcDbPolyline
 90
        4
 70
     1
 43
0.0
 10
-15.58511792829807
 20
-162.0498033902754
 10
-17.58511792829803
 20
-162.0498033902754
 10
-17.58511792829803
 20
-169.5251002887688
 10
-15.58511792829807
 20
-169.5251002887688
  0
LWPOLYLINE
  5
100CF
330
1F
100
AcDbEntity
  8
0
100
AcDbPolyline
 90
        4
 70
     1
 43
0.0
 10
25.09340256283866
 20
-170.2576291484392
 10
35.09340256283867
 20
-170.2576291484392
 10
35.09340256283867
 20
-168.2576291484392
 10
25.09340256283866
 20
-168.2576291484392
  0
LWPOLYLINE
  5
100D0
330
1F
100
AcDbEntity
  8
0
100
AcDbPolyline
 90
        4
 70
     1
 43
0.0
 10
5.093402562838662
 20
-148.0678300264471
 10
5.093402562838662
 20
-150.067830026447
 10
15.09340256283865
 20
-150.067830026447
 10
15.09340256283865
 20
-148.0678300264471
  0
CIRCLE
  5
100D1
330
1F
100
AcDbEntity
  8
0
100
AcDbCircle
 10
53.4148819971961
 20
-169.662729587443
 30
0.0
 40
0.9999999999999964
  0
CIRCLE
  5
100D2
330
1F
100
AcDbEntity
  8
0
100
AcDbCircle
 10
53.4148819971961
 20
-148.6627295874432
 30
0.0
 40
0.9999999999999964
  0
LWPOLYLINE
  5
100D3
330
1F
100
AcDbEntity
  8
0
100
AcDbPolyline
 90
        4
 70
     1
 43
0.0
 10
5.093402562838662
 20
-168.2576291484392
 10
5.093402562838662
 20
-170.2576291484392
 10
15.09340256283865
 20
-170.2576291484392
 10
15.09340256283865
 20
-168.2576291484392
  0
LWPOLYLINE
  5
100D4
330
1F
100
AcDbEntity
  8
0
100
AcDbPolyline
 90
        4
 70
     1
 43
0.0
 10
-17.58511792829803
 20
-156.2756557846108
 10
-15.58511792829807
 20
-156.2756557846108
 10
-15.58511792829807
 20
-148.8003588861175
 10
-17.58511792829803
 20
-148.8003588861175
  0
CIRCLE
  5
100D5
330
1F
100
AcDbEntity
  8
0
100
AcDbCircle
 10
74.41488199719612
 20
-148.6627295874432
 30
0.0
 40
1.0
  0
LWPOLYLINE
  5
100D6
330
1F
100
AcDbEntity
  8
0
100
AcDbPolyline
 90
        4
 70
     1
 43
0.0
 10
25.09340256283866
 20
-150.067830026447
 10
35.09340256283867
 20
-150.067830026447
 10
35.09340256283867
 20
-148.0678300264471
 10
25.09340256283866
 20
-148.0678300264471
  0
CIRCLE
  5
100D7
330
1F
100
AcDbEntity
  8
0
100
AcDbCircle
 10
74.41488199719612
 20
-169.6627295874431
 30
0.0
 40
1.0
  0
LWPOLYLINE
  5
100D8
330
1F
100
AcDbEntity
  8
0
100
AcDbPolyline
 90
       12
 70
     1
 43
0.0
 10
-17.58511792829803
 20
-174.1627298109605
 42
-0.4142135623730937
 10
-20.58511792829808
 20
-171.1627298109605
 10
-20.58511792829808
 20
-147.1627293639257
 42
-0.414213562373092
 10
-17.58511792829807
 20
-144.1627293639257
 10
76.41488207170192
 20
-144.1627293639257
 42
-0.4142135623730951
 10
79.41488207170192
 20
-147.1627293639257
 10
79.41488207170192
 20
-149.2922479023637
 42
-0.4740568247854632
 10
75.81911603449242
 20
-152.2324966722653
 42
1.222946192178792
 10
75.81911603449242
 20
-166.092962502621
 42
-0.4740568247854632
 10
79.41488207170192
 20
-169.0332112725226
 10
79.41488207170192
 20
-171.1627298109605
 42
-0.4142135623730958
 10
76.41488207170192
 20
-174.1627298109605
  0
LWPOLYLINE
  5
100E9
330
1F
100
AcDbEntity
  8
0
100
AcDbPolyline
 90
        4
 70
     1
 43
0.0
 10
-43.72200935880042
 20
24.1654432671017
 10
-43.72200935880042
 20
-5.834557262320174
 42
1.0
 10
-31.58113867727022
 20
-5.834557262320231
 10
-31.58113867727022
 20
24.16544326710166
 42
1.0
  0
CIRCLE
  5
100EA
330
1F
100
AcDbEntity
  8
0
100
AcDbCircle
 10
-27.15157401803543
 20
-9.834556732898306
 30
0.0
 40
0.9999999999999964
  0
LWPOLYLINE
  5
100EB
330
1F
100
AcDbEntity
  8
0
100
AcDbPolyline
 90
        4
 70
     1
 43
0.0
 10
-46.74647357903137
 20
27.13810218344747
 10
-48.74647357903137
 20
27.13810218344747
 10
-48.7464735790314
 20
17.13810218344747
 10
-46.7464735790314
 20
17.13810218344747
  0
CIRCLE
  5
100EC
330
1F
100
AcDbEntity
  8
0
100
AcDbCircle
 10
-27.15157401803538
 20
-30.83455673289831
 30
0.0
 40
1.0
  0
LWPOLYLINE
  5
100ED
330
1F
100
AcDbEntity
  8
0
100
AcDbPolyline
 90
        4
 70
     1
 43
0.0
 10
-34.76450021520299
 20
36.16544319259586
 10
-34.76450021520299
 20
34.16544319259586
 10
-27.28920331670969
 20
34.16544319259586
 10
-27.28920331670969
 20
36.16544319259586
  0
LWPOLYLINE
  5
100EE
330
1F
100
AcDbEntity
  8
0
100
AcDbPolyline
 90
        4
 70
     1
 43
0.0
 10
-48.7464735790314
 20
7.138102183447472
 10
-48.7464735790314
 20
-2.861897816552527
 10
-46.7464735790314
 20
-2.861897816552527
 10
-46.7464735790314
 20
7.138102183447472
  0
CIRCLE
  5
100EF
330
1F
100
AcDbEntity
  8
0
100
AcDbCircle
 10
-48.15157401803526
 20
-30.83455673289831
 30
0.0
 40
1.0
  0
LWPOLYLINE
  5
100F0
330
1F
100
AcDbEntity
  8
0
100
AcDbPolyline
 90
        4
 70
     1
 43
0.0
 10
-26.55667445703924
 20
27.13810218344747
 10
-28.55667445703924
 20
27.13810218344747
 10
-28.55667445703924
 20
17.13810218344747
 10
-26.55667445703924
 20
17.13810218344747
  0
CIRCLE
  5
100F1
330
1F
100
AcDbEntity
  8
0
100
AcDbCircle
 10
-48.15157401803521
 20
-9.834556732898306
 30
0.0
 40
0.9999999999999964
  0
LWPOLYLINE
  5
100F2
330
1F
100
AcDbEntity
  8
0
100
AcDbPolyline
 90
        4
 70
     1
 43
0.0
 10
-40.53864782086762
 20
34.16544319259586
 10
-40.53864782086762
 20
36.16544319259586
 10
-48.01394471936095
 20
36.16544319259586
 10
-48.01394471936095
 20
34.16544319259586
  0
LWPOLYLINE
  5
100F3
330
1F
100
AcDbEntity
  8
0
100
AcDbPolyline
 90
        4
 70
     1
 43
0.0
 10
-28.55667445703924
 20
7.138102183447472
 10
-28.55667445703924
 20
-2.861897816552527
 10
-26.55667445703924
 20
-2.861897816552527
 10
-26.55667445703924
 20
7.138102183447472
  0
LWPOLYLINE
  5
100F4
330
1F
100
AcDbEntity
  8
0
100
AcDbPolyline
 90
       12
 70
     1
 43
0.0
 10
-52.65157424155271
 20
36.16544319259586
 42
-0.414213562373099
 10
-49.65157424155274
 20
39.16544319259586
 10
-25.6515737945179
 20
39.16544319259586
 42
-0.4142135623730959
 10
-22.6515737945179
 20
36.16544319259586
 10
-22.6515737945179
 20
-32.83455680740412
 42
-0.4142135623730948
 10
-25.6515737945179
 20
-35.83455680740411
 10
-27.7810923329559
 20
-35.83455680740411
 42
-0.4740568247854632
 10
-30.72134110285745
 20
-32.23879077019461
 42
1.222946192178792
 10
-44.58180693321319
 20
-32.23879077019461
 42
-0.4740568247854632
 10
-47.52205570311474
 20
-35.83455680740411
 10
-49.65157424155274
 20
-35.83455680740411
 42
-0.4142135623730949
 10
-52.65157424155273
 20
-32.83455680740412
  0
LWPOLYLINE
  5
1010C
330
1F
100
AcDbEntity
  8
0
100
AcDbPolyline
 90
        4
 70
     1
 43
0.0
 10
-44.17821604070641
 20
-55.56749997437049
 10
-44.17821604070641
 20
-85.56750050379235
 42
1.0
 10
-32.03734535917622
 20
-85.56750050379241
 10
-32.03734535917622
 20
-55.56749997437052
 42
1.0
  0
CIRCLE
  5
1010D
330
1F
100
AcDbEntity
  8
0
100
AcDbCircle
 10
-27.60778069994143
 20
-89.56749997437048
 30
0.0
 40
0.9999999999999964
  0
LWPOLYLINE
  5
1010E
330
1F
100
AcDbEntity
  8
0
100
AcDbPolyline
 90
        4
 70
     1
 43
0.0
 10
-47.20268026093736
 20
-52.59484105802471
 10
-49.20268026093737
 20
-52.59484105802471
 10
-49.2026802609374
 20
-62.59484105802471
 10
-47.2026802609374
 20
-62.59484105802471
  0
CIRCLE
  5
1010F
330
1F
100
AcDbEntity
  8
0
100
AcDbCircle
 10
-27.60778069994137
 20
-110.5674999743705
 30
0.0
 40
1.0
  0
LWPOLYLINE
  5
10110
330
1F
100
AcDbEntity
  8
0
100
AcDbPolyline
 90
        4
 70
     1
 43
0.0
 10
-35.22070689710898
 20
-43.56750004887632
 10
-35.22070689710898
 20
-45.56750004887632
 10
-27.74540999861569
 20
-45.56750004887632
 10
-27.74540999861569
 20
-43.56750004887632
  0
LWPOLYLINE
  5
10111
330
1F
100
AcDbEntity
  8
0
100
AcDbPolyline
 90
        4
 70
     1
 43
0.0
 10
-49.2026802609374
 20
-72.59484105802471
 10
-49.2026802609374
 20
-82.59484105802471
 10
-47.2026802609374
 20
-82.59484105802471
 10
-47.2026802609374
 20
-72.59484105802471
  0
CIRCLE
  5
10112
330
1F
100
AcDbEntity
  8
0
100
AcDbCircle
 10
-48.60778069994125
 20
-110.5674999743705
 30
0.0
 40
1.0
  0
LWPOLYLINE
  5
10113
330
1F
100
AcDbEntity
  8
0
100
AcDbPolyline
 90
        4
 70
     1
 43
0.0
 10
-27.01288113894523
 20
-52.59484105802471
 10
-29.01288113894523
 20
-52.59484105802471
 10
-29.01288113894523
 20
-62.59484105802471
 10
-27.01288113894523
 20
-62.59484105802471
  0
CIRCLE
  5
10114
330
1F
100
AcDbEntity
  8
0
100
AcDbCircle
 10
-48.6077806999412
 20
-89.56749997437048
 30
0.0
 40
0.9999999999999964
  0
LWPOLYLINE
  5
10115
330
1F
100
AcDbEntity
  8
0
100
AcDbPolyline
 90
        4
 70
     1
 43
0.0
 10
-40.99485450277362
 20
-45.56750004887632
 10
-40.99485450277362
 20
-43.56750004887632
 10
-48.47015140126694
 20
-43.56750004887632
 10
-48.47015140126694
 20
-45.56750004887632
  0
LWPOLYLINE
  5
10116
330
1F
100
AcDbEntity
  8
0
100
AcDbPolyline
 90
        4
 70
     1
 43
0.0
 10
-29.01288113894523
 20
-72.59484105802471
 10
-29.01288113894523
 20
-82.59484105802471
 10
-27.01288113894523
 20
-82.59484105802471
 10
-27.01288113894523
 20
-72.59484105802471
  0
LWPOLYLINE
  5
10117
330
1F
100
AcDbEntity
  8
0
100
AcDbPolyline
 90
       12
 70
     1
 43
0.0
 10
-53.1077809234587
 20
-43.56750004887632
 42
-0.414213562373099
 10
-50.10778092345873
 20
-40.56750004887632
 10
-26.1077804764239
 20
-40.56750004887632
 42
-0.4142135623730959
 10
-23.1077804764239
 20
-43.56750004887632
 10
-23.1077804764239
 20
-112.5675000488763
 42
-0.4142135623730948
 10
-26.1077804764239
 20
-115.5675000488763
 10
-28.23729901486189
 20
-115.5675000488763
 42
-0.4740568247854632
 10
-31.17754778476345
 20
-111.9717340116668
 42
1.222946192178792
 10
-45.03801361511918
 20
-111.9717340116668
 42
-0.4740568247854632
 10
-47.97826238502074
 20
-115.5675000488763
 10
-50.10778092345873
 20
-115.5675000488763
 42
-0.4142135623730949
 10
-53.10778092345874
 20
-112.5675000488763
  0
LWPOLYLINE
  5
10128
330
1F
100
AcDbEntity
  8
0
100
AcDbPolyline
 90
        4
 70
     1
 43
0.0
 10
-78.34795476487525
 20
24.53593264390321
 10
-78.34795476487525
 20
-5.464067885518659
 42
1.0
 10
-66.20708408334505
 20
-5.464067885518716
 10
-66.20708408334505
 20
24.53593264390318
 42
1.0
  0
CIRCLE
  5
10129
330
1F
100
AcDbEntity
  8
0
100
AcDbCircle
 10
-61.77751942411027
 20
-9.464067356096791
 30
0.0
 40
0.9999999999999964
  0
LWPOLYLINE
  5
1012A
330
1F
100
AcDbEntity
  8
0
100
AcDbPolyline
 90
        4
 70
     1
 43
0.0
 10
-81.37241898510621
 20
27.50859156024899
 10
-83.37241898510621
 20
27.50859156024899
 10
-83.37241898510624
 20
17.50859156024899
 10
-81.37241898510623
 20
17.50859156024899
  0
CIRCLE
  5
1012B
330
1F
100
AcDbEntity
  8
0
100
AcDbCircle
 10
-61.7775194241102
 20
-30.46406735609679
 30
0.0
 40
1.0
  0
LWPOLYLINE
  5
1012C
330
1F
100
AcDbEntity
  8
0
100
AcDbPolyline
 90
        4
 70
     1
 43
0.0
 10
-69.39044562127782
 20
36.53593256939738
 10
-69.39044562127782
 20
34.53593256939738
 10
-61.91514872278452
 20
34.53593256939738
 10
-61.91514872278452
 20
36.53593256939738
  0
LWPOLYLINE
  5
1012D
330
1F
100
AcDbEntity
  8
0
100
AcDbPolyline
 90
        4
 70
     1
 43
0.0
 10
-83.37241898510624
 20
7.508591560248987
 10
-83.37241898510624
 20
-2.491408439751012
 10
-81.37241898510623
 20
-2.491408439751012
 10
-81.37241898510623
 20
7.508591560248987
  0
CIRCLE
  5
1012E
330
1F
100
AcDbEntity
  8
0
100
AcDbCircle
 10
-82.77751942411009
 20
-30.46406735609679
 30
0.0
 40
1.0
  0
LWPOLYLINE
  5
1012F
330
1F
100
AcDbEntity
  8
0
100
AcDbPolyline
 90
        4
 70
     1
 43
0.0
 10
-61.18261986311407
 20
27.50859156024899
 10
-63.18261986311407
 20
27.50859156024899
 10
-63.18261986311407
 20
17.50859156024899
 10
-61.18261986311407
 20
17.50859156024899
  0
CIRCLE
  5
10130
330
1F
100
AcDbEntity
  8
0
100
AcDbCircle
 10
-82.77751942411004
 20
-9.464067356096791
 30
0.0
 40
0.9999999999999964
  0
LWPOLYLINE
  5
10131
330
1F
100
AcDbEntity
  8
0
100
AcDbPolyline
 90
        4
 70
     1
 43
0.0
 10
-75.16459322694245
 20
34.53593256939738
 10
-75.16459322694245
 20
36.53593256939738
 10
-82.63989012543579
 20
36.53593256939738
 10
-82.63989012543579
 20
34.53593256939738
  0
LWPOLYLINE
  5
10132
330
1F
100
AcDbEntity
  8
0
100
AcDbPolyline
 90
        4
 70
     1
 43
0.0
 10
-63.18261986311407
 20
7.508591560248987
 10
-63.18261986311407
 20
-2.491408439751012
 10
-61.18261986311407
 20
-2.491408439751012
 10
-61.18261986311407
 20
7.508591560248987
  0
LWPOLYLINE
  5
10133
330
1F
100
AcDbEntity
  8
0
100
AcDbPolyline
 90
       12
 70
     1
 43
0.0
 10
-87.27751964762754
 20
36.53593256939738
 42
-0.414213562373099
 10
-84.27751964762757
 20
39.53593256939738
 10
-60.27751920059273
 20
39.53593256939738
 42
-0.4142135623730959
 10
-57.27751920059273
 20
36.53593256939738
 10
-57.27751920059273
 20
-32.4640674306026
 42
-0.4142135623730948
 10
-60.27751920059273
 20
-35.4640674306026
 10
-62.40703773903073
 20
-35.4640674306026
 42
-0.4740568247854632
 10
-65.34728650893228
 20
-31.8683013933931
 42
1.222946192178792
 10
-79.20775233928802
 20
-31.8683013933931
 42
-0.4740568247854632
 10
-82.14800110918957
 20
-35.4640674306026
 10
-84.27751964762757
 20
-35.4640674306026
 42
-0.4142135623730949
 10
-87.27751964762758
 20
-32.4640674306026
  0
LWPOLYLINE
  5
10144
330
1F
100
AcDbEntity
  8
0
100
AcDbPolyline
 90
        4
 70
     1
 43
0.0
 10
-78.34795477501143
 20
-56.15649626928001
 10
-78.34795477501143
 20
-86.15649679870188
 42
1.0
 10
-66.20708409348122
 20
-86.15649679870193
 10
-66.20708409348122
 20
-56.15649626928004
 42
1.0
  0
CIRCLE
  5
10145
330
1F
100
AcDbEntity
  8
0
100
AcDbCircle
 10
-61.77751943424644
 20
-90.15649626928
 30
0.0
 40
0.9999999999999964
  0
LWPOLYLINE
  5
10146
330
1F
100
AcDbEntity
  8
0
100
AcDbPolyline
 90
        4
 70
     1
 43
0.0
 10
-81.37241899524239
 20
-53.18383735293423
 10
-83.37241899524238
 20
-53.18383735293423
 10
-83.37241899524242
 20
-63.18383735293423
 10
-81.37241899524241
 20
-63.18383735293423
  0
CIRCLE
  5
10147
330
1F
100
AcDbEntity
  8
0
100
AcDbCircle
 10
-61.77751943424638
 20
-111.15649626928
 30
0.0
 40
1.0
  0
LWPOLYLINE
  5
10148
330
1F
100
AcDbEntity
  8
0
100
AcDbPolyline
 90
        4
 70
     1
 43
0.0
 10
-69.390445631414
 20
-44.15649634378584
 10
-69.390445631414
 20
-46.15649634378584
 10
-61.9151487329207
 20
-46.15649634378584
 10
-61.9151487329207
 20
-44.15649634378584
  0
LWPOLYLINE
  5
10149
330
1F
100
AcDbEntity
  8
0
100
AcDbPolyline
 90
        4
 70
     1
 43
0.0
 10
-83.37241899524242
 20
-73.18383735293423
 10
-83.37241899524242
 20
-83.18383735293423
 10
-81.37241899524241
 20
-83.18383735293423
 10
-81.37241899524241
 20
-73.18383735293423
  0
CIRCLE
  5
1014A
330
1F
100
AcDbEntity
  8
0
100
AcDbCircle
 10
-82.77751943424627
 20
-111.15649626928
 30
0.0
 40
1.0
  0
LWPOLYLINE
  5
1014B
330
1F
100
AcDbEntity
  8
0
100
AcDbPolyline
 90
        4
 70
     1
 43
0.0
 10
-61.18261987325024
 20
-53.18383735293423
 10
-63.18261987325024
 20
-53.18383735293423
 10
-63.18261987325024
 20
-63.18383735293423
 10
-61.18261987325024
 20
-63.18383735293423
  0
CIRCLE
  5
1014C
330
1F
100
AcDbEntity
  8
0
100
AcDbCircle
 10
-82.77751943424622
 20
-90.15649626928
 30
0.0
 40
0.9999999999999964
  0
LWPOLYLINE
  5
1014D
330
1F
100
AcDbEntity
  8
0
100
AcDbPolyline
 90
        4
 70
     1
 43
0.0
 10
-75.16459323707863
 20
-46.15649634378584
 10
-75.16459323707863
 20
-44.15649634378584
 10
-82.63989013557196
 20
-44.15649634378584
 10
-82.63989013557196
 20
-46.15649634378584
  0
LWPOLYLINE
  5
1014E
330
1F
100
AcDbEntity
  8
0
100
AcDbPolyline
 90
        4
 70
     1
 43
0.0
 10
-63.18261987325024
 20
-73.18383735293423
 10
-63.18261987325024
 20
-83.18383735293423
 10
-61.18261987325024
 20
-83.18383735293423
 10
-61.18261987325024
 20
-73.18383735293423
  0
LWPOLYLINE
  5
1014F
330
1F
100
AcDbEntity
  8
0
100
AcDbPolyline
 90
       12
 70
     1
 43
0.0
 10
-87.27751965776372
 20
-44.15649634378584
 42
-0.414213562373099
 10
-84.27751965776375
 20
-41.15649634378584
 10
-60.27751921072891
 20
-41.15649634378584
 42
-0.4142135623730959
 10
-57.27751921072891
 20
-44.15649634378584
 10
-57.27751921072891
 20
-113.1564963437858
 42
-0.4142135623730948
 10
-60.27751921072891
 20
-116.1564963437858
 10
-62.4070377491669
 20
-116.1564963437858
 42
-0.4740568247854632
 10
-65.34728651906846
 20
-112.5607303065763
 42
1.222946192178792
 10
-79.2077523494242
 20
-112.5607303065763
 42
-0.4740568247854632
 10
-82.14800111932575
 20
-116.1564963437858
 10
-84.27751965776375
 20
-116.1564963437858
 42
-0.4142135623730949
 10
-87.27751965776375
 20
-113.1564963437858
  0
LWPOLYLINE
  5
10164
330
1F
100
AcDbEntity
  8
0
100
AcDbPolyline
 90
       12
 70
     1
 43
0.0
 10
14.27412696105141
 20
11.14097892889374
 10
14.27412696105141
 20
41.14097892889374
 10
24.2741269610515
 20
41.14097892889374
 10
24.2741269610515
 20
39.14097892889375
 10
34.2741269610515
 20
39.14097892889375
 10
34.2741269610515
 20
41.14097892889374
 10
44.27412696105149
 20
41.14097892889374
 10
44.27412696105149
 20
11.14097892889374
 10
34.27412696105142
 20
11.14097892889374
 10
34.27412696105142
 20
13.14097892889374
 10
24.27412696105142
 20
13.14097892889374
 10
24.27412696105142
 20
11.14097892889374
  0
LWPOLYLINE
  5
1016A
330
1F
100
AcDbEntity
  8
0
100
AcDbPolyline
 90
       12
 70
     1
 43
0.0
 10
14.27412696105141
 20
-23.55262340445772
 10
14.27412696105141
 20
6.44737659554228
 10
24.2741269610515
 20
6.44737659554228
 10
24.2741269610515
 20
4.44737659554228
 10
34.2741269610515
 20
4.44737659554228
 10
34.2741269610515
 20
6.44737659554228
 10
44.27412696105149
 20
6.44737659554228
 10
44.27412696105149
 20
-23.55262340445772
 10
34.27412696105142
 20
-23.55262340445772
 10
34.27412696105142
 20
-21.55262340445772
 10
24.27412696105142
 20
-21.55262340445772
 10
24.27412696105142
 20
-23.55262340445772
  0
LWPOLYLINE
  5
10170
330
1F
100
AcDbEntity
  8
0
100
AcDbPolyline
 90
       12
 70
     1
 43
0.0
 10
47.30748187787519
 20
10.97418227305532
 10
47.30748187787519
 20
40.97418227305531
 10
57.30748187787528
 20
40.97418227305531
 10
57.30748187787528
 20
38.97418227305532
 10
67.30748187787529
 20
38.97418227305532
 10
67.30748187787529
 20
40.97418227305531
 10
77.30748187787527
 20
40.97418227305531
 10
77.30748187787527
 20
10.97418227305532
 10
67.3074818778752
 20
10.97418227305532
 10
67.3074818778752
 20
12.97418227305532
 10
57.3074818778752
 20
12.97418227305532
 10
57.3074818778752
 20
10.97418227305531
  0
LWPOLYLINE
  5
101A5
330
1F
100
AcDbEntity
  8
0
100
AcDbPolyline
 90
        4
 70
     1
 43
0.0
 10
104.5713797873113
 20
-49.49374902441332
 10
157.6862614428681
 20
-49.49374902441332
 42
1.0
 10
157.6862614428681
 20
-37.35287834288312
 10
104.5713797873113
 20
-37.35287834288312
 42
1.0
  0
LWPOLYLINE
  5
101A6
330
1F
100
AcDbEntity
  8
0
100
AcDbPolyline
 90
        4
 70
     1
 43
0.0
 10
92.68626151737391
 20
-46.31038748648052
 10
90.68626151737396
 20
-46.31038748648052
 10
90.68626151737396
 20
-53.78568438497386
 10
92.68626151737391
 20
-53.78568438497386
  0
LWPOLYLINE
  5
101A7
330
1F
100
AcDbEntity
  8
0
100
AcDbPolyline
 90
        4
 70
     1
 43
0.0
 10
133.3647820085106
 20
-54.5182132446443
 10
143.3647820085106
 20
-54.5182132446443
 10
143.3647820085106
 20
-52.5182132446443
 10
133.3647820085106
 20
-52.5182132446443
  0
LWPOLYLINE
  5
101A8
330
1F
100
AcDbEntity
  8
0
100
AcDbPolyline
 90
        4
 70
     1
 43
0.0
 10
113.3647820085106
 20
-32.32841412265214
 10
113.3647820085106
 20
-34.32841412265214
 10
123.3647820085106
 20
-34.32841412265214
 10
123.3647820085106
 20
-32.32841412265214
  0
CIRCLE
  5
101A9
330
1F
100
AcDbEntity
  8
0
100
AcDbCircle
 10
161.6862614428681
 20
-53.92331368364811
 30
0.0
 40
0.9999999999999964
  0
CIRCLE
  5
101AA
330
1F
100
AcDbEntity
  8
0
100
AcDbCircle
 10
161.6862614428681
 20
-32.9233136836483
 30
0.0
 40
0.9999999999999964
  0
LWPOLYLINE
  5
101AB
330
1F
100
AcDbEntity
  8
0
100
AcDbPolyline
 90
        4
 70
     1
 43
0.0
 10
113.3647820085106
 20
-52.5182132446443
 10
113.3647820085106
 20
-54.5182132446443
 10
123.3647820085106
 20
-54.5182132446443
 10
123.3647820085106
 20
-52.5182132446443
  0
LWPOLYLINE
  5
101AC
330
1F
100
AcDbEntity
  8
0
100
AcDbPolyline
 90
        4
 70
     1
 43
0.0
 10
90.68626151737396
 20
-40.53623988081591
 10
92.68626151737391
 20
-40.53623988081591
 10
92.68626151737391
 20
-33.06094298232256
 10
90.68626151737396
 20
-33.06094298232256
  0
CIRCLE
  5
101AD
330
1F
100
AcDbEntity
  8
0
100
AcDbCircle
 10
182.6862614428681
 20
-32.9233136836483
 30
0.0
 40
1.0
  0
LWPOLYLINE
  5
101AE
330
1F
100
AcDbEntity
  8
0
100
AcDbPolyline
 90
        4
 70
     1
 43
0.0
 10
133.3647820085106
 20
-34.32841412265214
 10
143.3647820085106
 20
-34.32841412265214
 10
143.3647820085106
 20
-32.32841412265214
 10
133.3647820085106
 20
-32.32841412265214
  0
CIRCLE
  5
101AF
330
1F
100
AcDbEntity
  8
0
100
AcDbCircle
 10
182.6862614428681
 20
-53.92331368364814
 30
0.0
 40
1.0
  0
LWPOLYLINE
  5
101B0
330
1F
100
AcDbEntity
  8
0
100
AcDbPolyline
 90
       12
 70
     1
 43
0.0
 10
90.68626151737396
 20
-58.42331390716563
 42
-0.4142135623730937
 10
87.68626151737391
 20
-55.42331390716563
 10
87.68626151737391
 20
-31.4233134601308
 42
-0.414213562373092
 10
90.6862615173739
 20
-28.4233134601308
 10
184.6862615173739
 20
-28.4233134601308
 42
-0.4142135623730951
 10
187.6862615173739
 20
-31.4233134601308
 10
187.6862615173739
 20
-33.55283199856879
 42
-0.4740568247854632
 10
184.0904954801644
 20
-36.49308076847035
 42
1.222946192178792
 10
184.0904954801644
 20
-50.35354659882608
 42
-0.4740568247854632
 10
187.6862615173739
 20
-53.29379536872764
 10
187.6862615173739
 20
-55.42331390716563
 42
-0.4142135623730958
 10
184.6862615173739
 20
-58.42331390716563
  0
LWPOLYLINE
  5
101B1
330
1F
100
AcDbEntity
  8
0
100
AcDbPolyline
 90
        4
 70
     1
 43
0.0
 10
104.2455499313995
 20
-84.99323234029665
 10
157.3604315869563
 20
-84.99323234029665
 42
1.0
 10
157.3604315869563
 20
-72.85236165876643
 10
104.2455499313995
 20
-72.85236165876643
 42
1.0
  0
LWPOLYLINE
  5
101B2
330
1F
100
AcDbEntity
  8
0
100
AcDbPolyline
 90
        4
 70
     1
 43
0.0
 10
92.36043166146215
 20
-81.80987080236382
 10
90.36043166146219
 20
-81.80987080236382
 10
90.36043166146219
 20
-89.28516770085717
 10
92.36043166146215
 20
-89.28516770085717
  0
LWPOLYLINE
  5
101B3
330
1F
100
AcDbEntity
  8
0
100
AcDbPolyline
 90
        4
 70
     1
 43
0.0
 10
133.0389521525989
 20
-90.01769656052761
 10
143.0389521525988
 20
-90.01769656052761
 10
143.0389521525988
 20
-88.0176965605276
 10
133.0389521525989
 20
-88.0176965605276
  0
LWPOLYLINE
  5
101B4
330
1F
100
AcDbEntity
  8
0
100
AcDbPolyline
 90
        4
 70
     1
 43
0.0
 10
113.0389521525989
 20
-67.82789743853545
 10
113.0389521525989
 20
-69.82789743853544
 10
123.0389521525989
 20
-69.82789743853544
 10
123.0389521525989
 20
-67.82789743853545
  0
CIRCLE
  5
101B5
330
1F
100
AcDbEntity
  8
0
100
AcDbCircle
 10
161.3604315869563
 20
-89.42279699953143
 30
0.0
 40
0.9999999999999964
  0
CIRCLE
  5
101B6
330
1F
100
AcDbEntity
  8
0
100
AcDbCircle
 10
161.3604315869563
 20
-68.42279699953163
 30
0.0
 40
0.9999999999999964
  0
LWPOLYLINE
  5
101B7
330
1F
100
AcDbEntity
  8
0
100
AcDbPolyline
 90
        4
 70
     1
 43
0.0
 10
113.0389521525989
 20
-88.0176965605276
 10
113.0389521525989
 20
-90.01769656052761
 10
123.0389521525989
 20
-90.01769656052761
 10
123.0389521525989
 20
-88.0176965605276
  0
LWPOLYLINE
  5
101B8
330
1F
100
AcDbEntity
  8
0
100
AcDbPolyline
 90
        4
 70
     1
 43
0.0
 10
90.36043166146219
 20
-76.03572319669922
 10
92.36043166146215
 20
-76.03572319669922
 10
92.36043166146215
 20
-68.56042629820588
 10
90.36043166146219
 20
-68.56042629820588
  0
CIRCLE
  5
101B9
330
1F
100
AcDbEntity
  8
0
100
AcDbCircle
 10
182.3604315869563
 20
-68.42279699953159
 30
0.0
 40
1.0
  0
LWPOLYLINE
  5
101BA
330
1F
100
AcDbEntity
  8
0
100
AcDbPolyline
 90
        4
 70
     1
 43
0.0
 10
133.0389521525989
 20
-69.82789743853544
 10
143.0389521525988
 20
-69.82789743853544
 10
143.0389521525988
 20
-67.82789743853545
 10
133.0389521525989
 20
-67.82789743853545
  0
CIRCLE
  5
101BB
330
1F
100
AcDbEntity
  8
0
100
AcDbCircle
 10
182.3604315869563
 20
-89.42279699953145
 30
0.0
 40
1.0
  0
LWPOLYLINE
  5
101BC
330
1F
100
AcDbEntity
  8
0
100
AcDbPolyline
 90
       12
 70
     1
 43
0.0
 10
90.36043166146219
 20
-93.92279722304895
 42
-0.4142135623730937
 10
87.36043166146215
 20
-90.92279722304894
 10
87.36043166146215
 20
-66.92279677601411
 42
-0.414213562373092
 10
90.36043166146214
 20
-63.92279677601411
 10
184.3604316614621
 20
-63.92279677601411
 42
-0.4142135623730951
 10
187.3604316614621
 20
-66.92279677601411
 10
187.3604316614621
 20
-69.0523153144521
 42
-0.4740568247854632
 10
183.7646656242526
 20
-71.99256408435366
 42
1.222946192178792
 10
183.7646656242526
 20
-85.85302991470939
 42
-0.4740568247854632
 10
187.3604316614621
 20
-88.79327868461095
 10
187.3604316614621
 20
-90.92279722304894
 42
-0.4142135623730958
 10
184.3604316614621
 20
-93.92279722304895
  0
LWPOLYLINE
  5
101BD
330
1F
100
AcDbEntity
  8
0
100
AcDbPolyline
 90
        4
 70
     1
 43
0.0
 10
101.6734486613711
 20
-124.3004542806771
 10
154.7883303169279
 20
-124.3004542806771
 42
1.0
 10
154.7883303169279
 20
-112.1595835991468
 10
101.6734486613711
 20
-112.1595835991468
 42
1.0
  0
LWPOLYLINE
  5
101BE
330
1F
100
AcDbEntity
  8
0
100
AcDbPolyline
 90
        4
 70
     1
 43
0.0
 10
89.78833039143376
 20
-121.1170927427442
 10
87.7883303914338
 20
-121.1170927427442
 10
87.7883303914338
 20
-128.5923896412376
 10
89.78833039143376
 20
-128.5923896412376
  0
LWPOLYLINE
  5
101BF
330
1F
100
AcDbEntity
  8
0
100
AcDbPolyline
 90
        4
 70
     1
 43
0.0
 10
130.4668508825705
 20
-129.324918500908
 10
140.4668508825705
 20
-129.324918500908
 10
140.4668508825705
 20
-127.324918500908
 10
130.4668508825705
 20
-127.324918500908
  0
LWPOLYLINE
  5
101C0
330
1F
100
AcDbEntity
  8
0
100
AcDbPolyline
 90
        4
 70
     1
 43
0.0
 10
110.4668508825705
 20
-107.1351193789158
 10
110.4668508825705
 20
-109.1351193789158
 10
120.4668508825705
 20
-109.1351193789158
 10
120.4668508825705
 20
-107.1351193789158
  0
CIRCLE
  5
101C1
330
1F
100
AcDbEntity
  8
0
100
AcDbCircle
 10
158.7883303169279
 20
-128.7300189399118
 30
0.0
 40
0.9999999999999964
  0
CIRCLE
  5
101C2
330
1F
100
AcDbEntity
  8
0
100
AcDbCircle
 10
158.7883303169279
 20
-107.730018939912
 30
0.0
 40
0.9999999999999964
  0
LWPOLYLINE
  5
101C3
330
1F
100
AcDbEntity
  8
0
100
AcDbPolyline
 90
        4
 70
     1
 43
0.0
 10
110.4668508825705
 20
-127.324918500908
 10
110.4668508825705
 20
-129.324918500908
 10
120.4668508825705
 20
-129.324918500908
 10
120.4668508825705
 20
-127.324918500908
  0
LWPOLYLINE
  5
101C4
330
1F
100
AcDbEntity
  8
0
100
AcDbPolyline
 90
        4
 70
     1
 43
0.0
 10
87.7883303914338
 20
-115.3429451370796
 10
89.78833039143376
 20
-115.3429451370796
 10
89.78833039143376
 20
-107.8676482385863
 10
87.7883303914338
 20
-107.8676482385863
  0
CIRCLE
  5
101C5
330
1F
100
AcDbEntity
  8
0
100
AcDbCircle
 10
179.7883303169279
 20
-107.730018939912
 30
0.0
 40
1.0
  0
LWPOLYLINE
  5
101C6
330
1F
100
AcDbEntity
  8
0
100
AcDbPolyline
 90
        4
 70
     1
 43
0.0
 10
130.4668508825705
 20
-109.1351193789158
 10
140.4668508825705
 20
-109.1351193789158
 10
140.4668508825705
 20
-107.1351193789158
 10
130.4668508825705
 20
-107.1351193789158
  0
CIRCLE
  5
101C7
330
1F
100
AcDbEntity
  8
0
100
AcDbCircle
 10
179.7883303169279
 20
-128.7300189399119
 30
0.0
 40
1.0
  0
LWPOLYLINE
  5
101C8
330
1F
100
AcDbEntity
  8
0
100
AcDbPolyline
 90
       12
 70
     1
 43
0.0
 10
87.7883303914338
 20
-133.2300191634294
 42
-0.4142135623730937
 10
84.78833039143376
 20
-130.2300191634294
 10
84.78833039143376
 20
-106.2300187163945
 42
-0.414213562373092
 10
87.78833039143377
 20
-103.2300187163945
 10
181.7883303914337
 20
-103.2300187163945
 42
-0.4142135623730951
 10
184.7883303914337
 20
-106.2300187163945
 10
184.7883303914337
 20
-108.3595372548325
 42
-0.4740568247854632
 10
181.1925643542242
 20
-111.2997860247341
 42
1.222946192178792
 10
181.1925643542242
 20
-125.1602518550898
 42
-0.4740568247854632
 10
184.7883303914337
 20
-128.1005006249914
 10
184.7883303914337
 20
-130.2300191634294
 42
-0.4142135623730958
 10
181.7883303914337
 20
-133.2300191634294
  0
LWPOLYLINE
  5
101C9
330
1F
100
AcDbEntity
  8
0
100
AcDbPolyline
 90
        4
 70
     1
 43
0.0
 10
101.6811316435241
 20
-162.233164660867
 10
154.7960132990809
 20
-162.233164660867
 42
1.0
 10
154.7960132990809
 20
-150.0922939793368
 10
101.6811316435241
 20
-150.0922939793368
 42
1.0
  0
LWPOLYLINE
  5
101CA
330
1F
100
AcDbEntity
  8
0
100
AcDbPolyline
 90
        4
 70
     1
 43
0.0
 10
89.79601337358673
 20
-159.0498031229342
 10
87.79601337358677
 20
-159.0498031229342
 10
87.79601337358677
 20
-166.5251000214275
 10
89.79601337358673
 20
-166.5251000214275
  0
LWPOLYLINE
  5
101CB
330
1F
100
AcDbEntity
  8
0
100
AcDbPolyline
 90
        4
 70
     1
 43
0.0
 10
130.4745338647234
 20
-167.257628881098
 10
140.4745338647234
 20
-167.257628881098
 10
140.4745338647234
 20
-165.257628881098
 10
130.4745338647234
 20
-165.257628881098
  0
LWPOLYLINE
  5
101CC
330
1F
100
AcDbEntity
  8
0
100
AcDbPolyline
 90
        4
 70
     1
 43
0.0
 10
110.4745338647235
 20
-145.0678297591058
 10
110.4745338647235
 20
-147.0678297591058
 10
120.4745338647234
 20
-147.0678297591058
 10
120.4745338647234
 20
-145.0678297591058
  0
CIRCLE
  5
101CD
330
1F
100
AcDbEntity
  8
0
100
AcDbCircle
 10
158.7960132990809
 20
-166.6627293201018
 30
0.0
 40
0.9999999999999964
  0
CIRCLE
  5
101CE
330
1F
100
AcDbEntity
  8
0
100
AcDbCircle
 10
158.7960132990809
 20
-145.662729320102
 30
0.0
 40
0.9999999999999964
  0
LWPOLYLINE
  5
101CF
330
1F
100
AcDbEntity
  8
0
100
AcDbPolyline
 90
        4
 70
     1
 43
0.0
 10
110.4745338647235
 20
-165.257628881098
 10
110.4745338647235
 20
-167.257628881098
 10
120.4745338647234
 20
-167.257628881098
 10
120.4745338647234
 20
-165.257628881098
  0
LWPOLYLINE
  5
101D0
330
1F
100
AcDbEntity
  8
0
100
AcDbPolyline
 90
        4
 70
     1
 43
0.0
 10
87.79601337358677
 20
-153.2756555172696
 10
89.79601337358673
 20
-153.2756555172696
 10
89.79601337358673
 20
-145.8003586187762
 10
87.79601337358677
 20
-145.8003586187762
  0
CIRCLE
  5
101D1
330
1F
100
AcDbEntity
  8
0
100
AcDbCircle
 10
179.7960132990809
 20
-145.6627293201019
 30
0.0
 40
1.0
  0
LWPOLYLINE
  5
101D2
330
1F
100
AcDbEntity
  8
0
100
AcDbPolyline
 90
        4
 70
     1
 43
0.0
 10
130.4745338647234
 20
-147.0678297591058
 10
140.4745338647234
 20
-147.0678297591058
 10
140.4745338647234
 20
-145.0678297591058
 10
130.4745338647234
 20
-145.0678297591058
  0
CIRCLE
  5
101D3
330
1F
100
AcDbEntity
  8
0
100
AcDbCircle
 10
179.7960132990809
 20
-166.6627293201018
 30
0.0
 40
1.0
  0
LWPOLYLINE
  5
101D4
330
1F
100
AcDbEntity
  8
0
100
AcDbPolyline
 90
       12
 70
     1
 43
0.0
 10
87.79601337358677
 20
-171.1627295436193
 42
-0.4142135623730937
 10
84.79601337358673
 20
-168.1627295436193
 10
84.79601337358673
 20
-144.1627290965845
 42
-0.414213562373092
 10
87.79601337358673
 20
-141.1627290965845
 10
181.7960133735867
 20
-141.1627290965845
 42
-0.4142135623730951
 10
184.7960133735867
 20
-144.1627290965845
 10
184.7960133735867
 20
-146.2922476350225
 42
-0.4740568247854632
 10
181.2002473363772
 20
-149.232496404924
 42
1.222946192178792
 10
181.2002473363772
 20
-163.0929622352797
 42
-0.4740568247854632
 10
184.7960133735867
 20
-166.0332110051813
 10
184.7960133735867
 20
-168.1627295436193
 42
-0.4142135623730958
 10
181.7960133735867
 20
-171.1627295436193
  0
LWPOLYLINE
  5
101F1
330
1F
100
AcDbEntity
  8
0
100
AcDbPolyline
 90
        4
 70
     1
 43
0.0
 10
-44.57236646040374
 20
-133.2485959933732
 10
-44.57236646040374
 20
-163.2485965227951
 42
1.0
 10
-32.43149577887354
 20
-163.2485965227952
 10
-32.43149577887354
 20
-133.2485959933733
 42
1.0
  0
CIRCLE
  5
101F2
330
1F
100
AcDbEntity
  8
0
100
AcDbCircle
 10
-28.00193111963876
 20
-167.2485959933732
 30
0.0
 40
0.9999999999999964
  0
LWPOLYLINE
  5
101F3
330
1F
100
AcDbEntity
  8
0
100
AcDbPolyline
 90
        4
 70
     1
 43
0.0
 10
-47.59683068063469
 20
-130.2759370770275
 10
-49.59683068063469
 20
-130.2759370770275
 10
-49.59683068063473
 20
-140.2759370770275
 10
-47.59683068063472
 20
-140.2759370770275
  0
CIRCLE
  5
101F4
330
1F
100
AcDbEntity
  8
0
100
AcDbCircle
 10
-28.0019311196387
 20
-188.2485959933732
 30
0.0
 40
1.0
  0
LWPOLYLINE
  5
101F5
330
1F
100
AcDbEntity
  8
0
100
AcDbPolyline
 90
        4
 70
     1
 43
0.0
 10
-35.61485731680631
 20
-121.2485960678791
 10
-35.61485731680631
 20
-123.2485960678791
 10
-28.13956041831301
 20
-123.2485960678791
 10
-28.13956041831301
 20
-121.2485960678791
  0
LWPOLYLINE
  5
101F6
330
1F
100
AcDbEntity
  8
0
100
AcDbPolyline
 90
        4
 70
     1
 43
0.0
 10
-49.59683068063473
 20
-150.2759370770275
 10
-49.59683068063473
 20
-160.2759370770275
 10
-47.59683068063472
 20
-160.2759370770275
 10
-47.59683068063472
 20
-150.2759370770275
  0
CIRCLE
  5
101F7
330
1F
100
AcDbEntity
  8
0
100
AcDbCircle
 10
-49.00193111963858
 20
-188.2485959933732
 30
0.0
 40
1.0
  0
LWPOLYLINE
  5
101F8
330
1F
100
AcDbEntity
  8
0
100
AcDbPolyline
 90
        4
 70
     1
 43
0.0
 10
-27.40703155864256
 20
-130.2759370770275
 10
-29.40703155864256
 20
-130.2759370770275
 10
-29.40703155864256
 20
-140.2759370770275
 10
-27.40703155864256
 20
-140.2759370770275
  0
CIRCLE
  5
101F9
330
1F
100
AcDbEntity
  8
0
100
AcDbCircle
 10
-49.00193111963853
 20
-167.2485959933732
 30
0.0
 40
0.9999999999999964
  0
LWPOLYLINE
  5
101FA
330
1F
100
AcDbEntity
  8
0
100
AcDbPolyline
 90
        4
 70
     1
 43
0.0
 10
-41.38900492247095
 20
-123.2485960678791
 10
-41.38900492247095
 20
-121.2485960678791
 10
-48.86430182096427
 20
-121.2485960678791
 10
-48.86430182096427
 20
-123.2485960678791
  0
LWPOLYLINE
  5
101FB
330
1F
100
AcDbEntity
  8
0
100
AcDbPolyline
 90
        4
 70
     1
 43
0.0
 10
-29.40703155864256
 20
-150.2759370770275
 10
-29.40703155864256
 20
-160.2759370770275
 10
-27.40703155864256
 20
-160.2759370770275
 10
-27.40703155864256
 20
-150.2759370770275
  0
LWPOLYLINE
  5
101FC
330
1F
100
AcDbEntity
  8
0
100
AcDbPolyline
 90
       12
 70
     1
 43
0.0
 10
-53.50193134315603
 20
-121.2485960678791
 42
-0.414213562373099
 10
-50.50193134315605
 20
-118.2485960678791
 10
-26.50193089612122
 20
-118.2485960678791
 42
-0.4142135623730959
 10
-23.50193089612123
 20
-121.2485960678791
 10
-23.50193089612123
 20
-190.248596067879
 42
-0.4142135623730948
 10
-26.50193089612122
 20
-193.2485960678791
 10
-28.63144943455921
 20
-193.2485960678791
 42
-0.4740568247854632
 10
-31.57169820446077
 20
-189.6528300306695
 42
1.222946192178792
 10
-45.4321640348165
 20
-189.6528300306695
 42
-0.4740568247854632
 10
-48.37241280471807
 20
-193.2485960678791
 10
-50.50193134315605
 20
-193.2485960678791
 42
-0.4142135623730949
 10
-53.50193134315606
 20
-190.248596067879
  0
LWPOLYLINE
  5
101FD
330
1F
100
AcDbEntity
  8
0
100
AcDbPolyline
 90
        4
 70
     1
 43
0.0
 10
-78.74210519470875
 20
-133.8375922882828
 10
-78.74210519470875
 20
-163.8375928177046
 42
1.0
 10
-66.60123451317855
 20
-163.8375928177047
 10
-66.60123451317855
 20
-133.8375922882828
 42
1.0
  0
CIRCLE
  5
101FE
330
1F
100
AcDbEntity
  8
0
100
AcDbCircle
 10
-62.17166985394377
 20
-167.8375922882828
 30
0.0
 40
0.9999999999999964
  0
LWPOLYLINE
  5
101FF
330
1F
100
AcDbEntity
  8
0
100
AcDbPolyline
 90
        4
 70
     1
 43
0.0
 10
-81.76656941493972
 20
-130.864933371937
 10
-83.76656941493971
 20
-130.864933371937
 10
-83.76656941493974
 20
-140.864933371937
 10
-81.76656941493973
 20
-140.864933371937
  0
CIRCLE
  5
10200
330
1F
100
AcDbEntity
  8
0
100
AcDbCircle
 10
-62.17166985394371
 20
-188.8375922882828
 30
0.0
 40
1.0
  0
LWPOLYLINE
  5
10201
330
1F
100
AcDbEntity
  8
0
100
AcDbPolyline
 90
        4
 70
     1
 43
0.0
 10
-69.78459605111132
 20
-121.8375923627886
 10
-69.78459605111132
 20
-123.8375923627886
 10
-62.30929915261802
 20
-123.8375923627886
 10
-62.30929915261802
 20
-121.8375923627886
  0
LWPOLYLINE
  5
10202
330
1F
100
AcDbEntity
  8
0
100
AcDbPolyline
 90
        4
 70
     1
 43
0.0
 10
-83.76656941493974
 20
-150.864933371937
 10
-83.76656941493974
 20
-160.864933371937
 10
-81.76656941493973
 20
-160.864933371937
 10
-81.76656941493973
 20
-150.864933371937
  0
CIRCLE
  5
10203
330
1F
100
AcDbEntity
  8
0
100
AcDbCircle
 10
-83.1716698539436
 20
-188.8375922882828
 30
0.0
 40
1.0
  0
LWPOLYLINE
  5
10204
330
1F
100
AcDbEntity
  8
0
100
AcDbPolyline
 90
        4
 70
     1
 43
0.0
 10
-61.57677029294757
 20
-130.864933371937
 10
-63.57677029294757
 20
-130.864933371937
 10
-63.57677029294757
 20
-140.864933371937
 10
-61.57677029294757
 20
-140.864933371937
  0
CIRCLE
  5
10205
330
1F
100
AcDbEntity
  8
0
100
AcDbCircle
 10
-83.17166985394354
 20
-167.8375922882828
 30
0.0
 40
0.9999999999999964
  0
LWPOLYLINE
  5
10206
330
1F
100
AcDbEntity
  8
0
100
AcDbPolyline
 90
        4
 70
     1
 43
0.0
 10
-75.55874365677595
 20
-123.8375923627886
 10
-75.55874365677595
 20
-121.8375923627886
 10
-83.03404055526929
 20
-121.8375923627886
 10
-83.03404055526929
 20
-123.8375923627886
  0
LWPOLYLINE
  5
10207
330
1F
100
AcDbEntity
  8
0
100
AcDbPolyline
 90
        4
 70
     1
 43
0.0
 10
-63.57677029294757
 20
-150.864933371937
 10
-63.57677029294757
 20
-160.864933371937
 10
-61.57677029294757
 20
-160.864933371937
 10
-61.57677029294757
 20
-150.864933371937
  0
LWPOLYLINE
  5
10208
330
1F
100
AcDbEntity
  8
0
100
AcDbPolyline
 90
       12
 70
     1
 43
0.0
 10
-87.67167007746104
 20
-121.8375923627886
 42
-0.414213562373099
 10
-84.67167007746107
 20
-118.8375923627886
 10
-60.67166963042623
 20
-118.8375923627886
 42
-0.4142135623730959
 10
-57.67166963042623
 20
-121.8375923627886
 10
-57.67166963042623
 20
-190.8375923627886
 42
-0.4142135623730948
 10
-60.67166963042623
 20
-193.8375923627886
 10
-62.80118816886423
 20
-193.8375923627886
 42
-0.4740568247854632
 10
-65.74143693876578
 20
-190.2418263255791
 42
1.222946192178792
 10
-79.60190276912152
 20
-190.2418263255791
 42
-0.4740568247854632
 10
-82.54215153902308
 20
-193.8375923627886
 10
-84.67167007746107
 20
-193.8375923627886
 42
-0.4142135623730949
 10
-87.67167007746108
 20
-190.8375923627886
  0
CIRCLE
  5
1020F
330
1F
100
AcDbEntity
  8
0
100
AcDbCircle
 10
62.74830319301073
 20
-8.739165879372496
 30
0.0
 40
10.0
  0
LWPOLYLINE
  5
10210
330
1F
100
AcDbEntity
  8
0
100
AcDbPolyline
 90
       20
 70
     1
 43
0.0
 10
75.74830319301073
 20
-19.10153658069809
 10
75.74830319301073
 20
-23.73916610288987
 10
49.74830319301073
 20
-23.73916610288996
 10
49.74830319301073
 20
-19.10153658069818
 10
47.74830319301073
 20
-19.10153658069818
 10
47.74830319301073
 20
-11.62623968220485
 10
49.74830319301073
 20
-11.62623968220484
 10
49.74830319301073
 20
-5.85209207654023
 10
47.74830319301073
 20
-5.85209207654023
 10
47.74830319301072
 20
1.623204821953105
 10
49.74830319301072
 20
1.623204821953105
 10
49.74830319301072
 20
6.260834344144878
 10
75.74830319301073
 20
6.260834344144964
 10
75.74830319301073
 20
1.623204821953187
 10
77.74830319301073
 20
1.623204821953187
 10
77.74830319301073
 20
-5.852092076540145
 10
75.74830319301073
 20
-5.852092076540145
 10
75.74830319301073
 20
-11.62623968220476
 10
77.74830319301073
 20
-11.62623968220476
 10
77.74830319301073
 20
-19.10153658069809
  0
CIRCLE
  5
10221
330
1F
100
AcDbEntity
  8
0
100
AcDbCircle
 10
94.50905269552343
 20
25.97418253508413
 30
0.0
 40
8.0
  0
LWPOLYLINE
  5
10222
330
1F
100
AcDbEntity
  8
0
100
AcDbPolyline
 90
       20
 70
     1
 43
0.0
 10
107.5090526955234
 20
15.61181183375852
 10
107.5090526955234
 20
10.97418231156675
 10
81.50905269552344
 20
10.97418231156666
 10
81.50905269552344
 20
15.61181183375844
 10
79.50905269552343
 20
15.61181183375844
 10
79.50905269552343
 20
23.08710873225177
 10
81.50905269552344
 20
23.08710873225178
 10
81.50905269552344
 20
28.86125633791639
 10
79.50905269552343
 20
28.86125633791639
 10
79.50905269552342
 20
36.33655323640973
 10
81.50905269552342
 20
36.33655323640973
 10
81.50905269552342
 20
40.9741827586015
 10
107.5090526955234
 20
40.97418275860158
 10
107.5090526955234
 20
36.33655323640982
 10
109.5090526955234
 20
36.33655323640982
 10
109.5090526955234
 20
28.86125633791648
 10
107.5090526955234
 20
28.86125633791648
 10
107.5090526955234
 20
23.08710873225186
 10
109.5090526955234
 20
23.08710873225186
 10
109.5090526955234
 20
15.61181183375852
  0
CIRCLE
  5
10229
330
1F
100
AcDbEntity
  8
0
100
AcDbCircle
 10
124.4638477342903
 20
-6.425803264789621
 30
0.0
 40
9.0
  0
LWPOLYLINE
  5
1022A
330
1F
100
AcDbEntity
  8
0
100
AcDbPolyline
 90
       20
 70
     1
 43
0.0
 10
137.4638477342903
 20
-16.78817396611522
 10
137.4638477342903
 20
-21.425803488307
 10
111.4638477342903
 20
-21.42580348830708
 10
111.4638477342903
 20
-16.7881739661153
 10
109.4638477342903
 20
-16.7881739661153
 10
109.4638477342903
 20
-9.312877067621972
 10
111.4638477342903
 20
-9.31287706762197
 10
111.4638477342903
 20
-3.538729461957355
 10
109.4638477342903
 20
-3.538729461957355
 10
109.4638477342902
 20
3.93656743653598
 10
111.4638477342903
 20
3.93656743653598
 10
111.4638477342903
 20
8.574196958727753
 10
137.4638477342903
 20
8.574196958727839
 10
137.4638477342903
 20
3.936567436536062
 10
139.4638477342903
 20
3.936567436536062
 10
139.4638477342903
 20
-3.53872946195727
 10
137.4638477342903
 20
-3.53872946195727
 10
137.4638477342903
 20
-9.312877067621887
 10
139.4638477342903
 20
-9.312877067621887
 10
139.4638477342903
 20
-16.78817396611522
  0
CIRCLE
  5
10231
330
1F
100
AcDbEntity
  8
0
100
AcDbCircle
 10
93.82818224029048
 20
-8.367468958770206
 30
0.0
 40
10.0
  0
LWPOLYLINE
  5
10232
330
1F
100
AcDbEntity
  8
0
100
AcDbPolyline
 90
       20
 70
     1
 43
0.0
 10
106.8281822402904
 20
-18.7298396600958
 10
106.8281822402904
 20
-23.36746918228758
 10
80.82818224029047
 20
-23.36746918228767
 10
80.82818224029047
 20
-18.72983966009589
 10
78.82818224029048
 20
-18.72983966009589
 10
78.82818224029048
 20
-11.25454276160255
 10
80.82818224029047
 20
-11.25454276160255
 10
80.82818224029047
 20
-5.480395155937941
 10
78.82818224029048
 20
-5.480395155937941
 10
78.82818224029046
 20
1.994901742555395
 10
80.82818224029045
 20
1.994901742555395
 10
80.82818224029045
 20
6.632531264747168
 10
106.8281822402904
 20
6.632531264747253
 10
106.8281822402904
 20
1.994901742555477
 10
108.8281822402904
 20
1.994901742555477
 10
108.8281822402904
 20
-5.480395155937856
 10
106.8281822402904
 20
-5.480395155937856
 10
106.8281822402904
 20
-11.25454276160247
 10
108.8281822402904
 20
-11.25454276160247
 10
108.8281822402904
 20
-18.7298396600958
  0
CIRCLE
  5
10239
330
1F
100
AcDbEntity
  8
0
100
AcDbCircle
 10
125.0429586485445
 20
26.01718229841076
 30
0.0
 40
8.0
  0
LWPOLYLINE
  5
1023A
330
1F
100
AcDbEntity
  8
0
100
AcDbPolyline
 90
       20
 70
     1
 43
0.0
 10
138.0429586485445
 20
15.65481159708516
 10
138.0429586485445
 20
11.01718207489338
 10
112.0429586485445
 20
11.01718207489329
 10
112.0429586485445
 20
15.65481159708508
 10
110.0429586485445
 20
15.65481159708508
 10
110.0429586485445
 20
23.13010849557841
 10
112.0429586485445
 20
23.13010849557841
 10
112.0429586485445
 20
28.90425610124303
 10
110.0429586485445
 20
28.90425610124303
 10
110.0429586485445
 20
36.37955299973636
 10
112.0429586485445
 20
36.37955299973636
 10
112.0429586485445
 20
41.01718252192813
 10
138.0429586485445
 20
41.01718252192822
 10
138.0429586485445
 20
36.37955299973645
 10
140.0429586485445
 20
36.37955299973645
 10
140.0429586485445
 20
28.90425610124311
 10
138.0429586485445
 20
28.90425610124311
 10
138.0429586485445
 20
23.1301084955785
 10
140.0429586485445
 20
23.1301084955785
 10
140.0429586485445
 20
15.65481159708516
  0
CIRCLE
  5
10241
330
1F
100
AcDbEntity
  8
0
100
AcDbCircle
 10
159.1213718750357
 20
26.31447173148393
 30
0.0
 40
11.0
  0
LWPOLYLINE
  5
10242
330
1F
100
AcDbEntity
  8
0
100
AcDbPolyline
 90
       20
 70
     1
 43
0.0
 10
172.1213718750357
 20
15.95210103015833
 10
172.1213718750357
 20
11.31447150796656
 10
146.1213718750357
 20
11.31447150796647
 10
146.1213718750357
 20
15.95210103015825
 10
144.1213718750357
 20
15.95210103015825
 10
144.1213718750357
 20
23.42739792865158
 10
146.1213718750357
 20
23.42739792865159
 10
146.1213718750357
 20
29.2015455343162
 10
144.1213718750357
 20
29.2015455343162
 10
144.1213718750357
 20
36.67684243280954
 10
146.1213718750357
 20
36.67684243280954
 10
146.1213718750357
 20
41.31447195500131
 10
172.1213718750357
 20
41.31447195500139
 10
172.1213718750357
 20
36.67684243280962
 10
174.1213718750357
 20
36.67684243280962
 10
174.1213718750357
 20
29.20154553431629
 10
172.1213718750357
 20
29.20154553431629
 10
172.1213718750357
 20
23.42739792865167
 10
174.1213718750357
 20
23.42739792865167
 10
174.1213718750357
 20
15.95210103015833
  0
CIRCLE
  5
10249
330
1F
100
AcDbEntity
  8
0
100
AcDbCircle
 10
158.339270381772
 20
-7.308001903756178
 30
0.0
 40
11.0
  0
LWPOLYLINE
  5
1024A
330
1F
100
AcDbEntity
  8
0
100
AcDbPolyline
 90
       20
 70
     1
 43
0.0
 10
171.3392703817719
 20
-17.67037260508178
 10
171.3392703817719
 20
-22.30800212727356
 10
145.3392703817719
 20
-22.30800212727364
 10
145.3392703817719
 20
-17.67037260508186
 10
143.3392703817719
 20
-17.67037260508186
 10
143.3392703817719
 20
-10.19507570658853
 10
145.3392703817719
 20
-10.19507570658853
 10
145.3392703817719
 20
-4.420928100923912
 10
143.3392703817719
 20
-4.420928100923912
 10
143.3392703817719
 20
3.054368797569424
 10
145.3392703817719
 20
3.054368797569424
 10
145.3392703817719
 20
7.691998319761196
 10
171.3392703817719
 20
7.691998319761282
 10
171.3392703817719
 20
3.054368797569505
 10
173.3392703817719
 20
3.054368797569505
 10
173.3392703817719
 20
-4.420928100923827
 10
171.3392703817719
 20
-4.420928100923827
 10
171.3392703817719
 20
-10.19507570658844
 10
173.3392703817719
 20
-10.19507570658844
 10
173.3392703817719
 20
-17.67037260508178
  0
ENDSEC
  0
SECTION
  2
OBJECTS
  0
DICTIONARY
  5
C
330
0
100
AcDbDictionary
281
     1
  3
ACAD_CIP_PREVIOUS_PRODUCT_INFO
350
1005A
  3
ACAD_COLOR
350
10036
  3
ACAD_DETAILVIEWSTYLE
350
10051
  3
ACAD_GROUP
350
D
  3
ACAD_LAYOUT
350
10037
  3
ACAD_MATERIAL
350
10004
  3
ACAD_MLEADERSTYLE
350
1004D
  3
ACAD_MLINESTYLE
350
17
  3
ACAD_PLOTSETTINGS
350
10054
  3
ACAD_PLOTSTYLENAME
350
10002
  3
ACAD_SCALELIST
350
1003B
  3
ACAD_SECTIONVIEWSTYLE
350
1004F
  3
ACAD_TABLESTYLE
350
10038
  3
ACAD_VISUALSTYLE
350
1001D
  3
ACDB_RECOMPOSE_DATA
350
10296
  3
AcDbVariableDictionary
350
10280
  3
AcDsDecomposeData
350
1029C
  0
DICTIONARY
  5
10250
330
2
100
AcDbDictionary
280
     1
281
     1
  3
ACAD_LAYERSTATES
360
10251
  0
DICTIONARY
  5
1024B
330
50
100
AcDbDictionary
280
     1
281
     1
  3
ADSK_XREC_LAYER_RECONCILED
360
1024C
  0
XRECORD
  5
1005A
102
{ACAD_REACTORS
330
C
102
}
330
C
100
AcDbXrecord
280
     1
300
ACDMAC
300
2018
300
ACDMAC_F_S
  0
DICTIONARY
  5
10036
102
{ACAD_REACTORS
330
C
102
}
330
C
100
AcDbDictionary
281
     1
  0
DICTIONARY
  5
10051
102
{ACAD_REACTORS
330
C
102
}
330
C
100
AcDbDictionary
281
     1
  3
Imperial24
350
10052
  0
DICTIONARY
  5
D
330
C
100
AcDbDictionary
281
     1
  0
DICTIONARY
  5
10037
102
{ACAD_REACTORS
330
C
102
}
330
C
100
AcDbDictionary
281
     1
  3
Layout1
350
10056
  3
Model
350
10055
  0
DICTIONARY
  5
10004
102
{ACAD_REACTORS
330
C
102
}
330
C
100
AcDbDictionary
281
     1
  3
ByBlock
350
1000D
  3
ByLayer
350
10005
  3
Global
350
10015
  0
DICTIONARY
  5
1004D
102
{ACAD_REACTORS
330
C
102
}
330
C
100
AcDbDictionary
281
     1
  3
Standard
350
1004E
  0
DICTIONARY
  5
17
330
C
100
AcDbDictionary
281
     1
  3
Standard
350
1003A
  0
DICTIONARY
  5
10054
102
{ACAD_REACTORS
330
C
102
}
330
C
100
AcDbDictionary
281
     1
  0
ACDBDICTIONARYWDFLT
  5
10002
102
{ACAD_REACTORS
330
C
102
}
330
C
100
AcDbDictionary
281
     1
  3
Normal
350
10003
100
AcDbDictionaryWithDefault
340
10003
  0
DICTIONARY
  5
1003B
102
{ACAD_REACTORS
330
C
102
}
330
C
100
AcDbDictionary
281
     1
  3
A0
350
1003C
  3
A1
350
1003D
  3
A2
350
1003E
  3
A3
350
1003F
  3
A4
350
10040
  3
A5
350
10041
  3
A6
350
10042
  3
A7
350
10043
  3
A8
350
10044
  3
A9
350
10045
  3
B0
350
10046
  3
B1
350
10047
  3
B2
350
10048
  3
B3
350
10049
  3
B4
350
1004A
  3
B5
350
1004B
  3
B6
350
1004C
  0
DICTIONARY
  5
1004F
102
{ACAD_REACTORS
330
C
102
}
330
C
100
AcDbDictionary
281
     1
  3
Imperial24
350
10050
  0
DICTIONARY
  5
10038
102
{ACAD_REACTORS
330
C
102
}
330
C
100
AcDbDictionary
281
     1
  3
Standard
350
10039
  0
DICTIONARY
  5
1001D
102
{ACAD_REACTORS
330
C
102
}
330
C
100
AcDbDictionary
281
     1
  3
2dWireframe
350
10023
  3
Basic
350
10022
  3
Brighten
350
10029
  3
ColorChange
350
1002D
  3
Conceptual
350
10026
  3
Dim
350
10028
  3
EdgeColorOff
350
10035
  3
Facepattern
350
1002C
  3
Flat
350
1001E
  3
FlatWithEdges
350
1001F
  3
Gouraud
350
10020
  3
GouraudWithEdges
350
10021
  3
Hidden
350
10025
  3
JitterOff
350
10033
  3
Linepattern
350
1002B
  3
OverhangOff
350
10034
  3
Realistic
350
10027
  3
Shaded
350
10032
  3
Shaded with edges
350
10031
  3
Shades of Gray
350
1002E
  3
Sketchy
350
1002F
  3
Thicken
350
1002A
  3
Wireframe
350
10024
  3
X-Ray
350
10030
  0
XRECORD
  5
10296
102
{ACAD_REACTORS
330
C
102
}
330
C
100
AcDbXrecord
280
     1
 90
        1
330
10039
  0
DICTIONARY
  5
10280
102
{ACAD_REACTORS
330
C
102
}
330
C
100
AcDbDictionary
281
     1
  3
CANNOSCALE
350
10286
  3
CMLEADERSTYLE
350
10282
  3
CTABLESTYLE
350
10281
  3
CVIEWDETAILSTYLE
350
10283
  3
CVIEWSECTIONSTYLE
350
10284
  3
LAYEREVAL
350
10288
  3
LAYERNOTIFY
350
10289
  3
LIGHTINGUNITS
350
10287
  3
MSLTSCALE
350
10285
  0
DICTIONARY
  5
1029C
102
{ACAD_REACTORS
330
C
102
}
330
C
100
AcDbDictionary
281
     1
  3
AcDsRecords
350
1029E
  3
AcDsSchemas
350
1029D
1001
ACAD
1070
     2
  0
DICTIONARY
  5
10251
102
{ACAD_REACTORS
330
10250
102
}
330
10250
100
AcDbDictionary
281
     1
  0
XRECORD
  5
1024C
102
{ACAD_REACTORS
330
1024B
102
}
330
1024B
100
AcDbXrecord
280
     1
290
     1
  0
ACDBDETAILVIEWSTYLE
  5
10052
102
{ACAD_XDICTIONARY
360
102A1
102
}
102
{ACAD_REACTORS
330
10051
102
}
330
10051
100
AcDbModelDocViewStyle
 70
     0
  3
Imperial24
290
     0
100
AcDbDetailViewStyle
 70
     0
 71
     0
 90
        3
 71
     1
340
11
 62
   256
 40
0.24
340
0
 62
   256
 40
0.24
300

 40
0.36
280
     3
 71
     2
340
0
 90
       25
 62
   256
 71
     3
340
11
 62
   256
 40
0.24
 90
        1
 40
0.75
 90
        1
300
%<\AcVar ViewType \f "%tc1">% %<\AcVar ViewDetailId>%\PSCALE %<\AcVar ViewScale \f "%sn">%
 71
     4
340
0
 90
       25
 62
   256
340
0
 90
       25
 62
   256
280
     0
  0
LAYOUT
  5
10056
102
{ACAD_REACTORS
330
10037
102
}
330
10037
100
AcDbPlotSettings
  1

  2

  4

  6

 40
0.0
 41
0.0
 42
0.0
 43
0.0
 44
0.0
 45
0.0
 46
0.0
 47
0.0
 48
0.0
 49
0.0
140
0.0
141
0.0
142
1.0
143
1.0
 70
   688
 72
     0
 73
     0
 74
     5
  7

 75
    16
147
1.0
 76
     0
 77
     2
 78
   300
148
0.0
149
0.0
100
AcDbLayout
  1
Layout1
 70
     1
 71
     1
 10
0.0
 20
0.0
 11
12.0
 21
9.0
 12
0.0
 22
0.0
 32
0.0
 14
1.000000000000000E+20
 24
1.000000000000000E+20
 34
1.000000000000000E+20
 15
-1.000000000000000E+20
 25
-1.000000000000000E+20
 35
-1.000000000000000E+20
146
0.0
 13
0.0
 23
0.0
 33
0.0
 16
1.0
 26
0.0
 36
0.0
 17
0.0
 27
1.0
 37
0.0
 76
     0
330
1B
  0
LAYOUT
  5
10055
102
{ACAD_REACTORS
330
10037
102
}
330
10037
100
AcDbPlotSettings
  1

  2

  4

  6

 40
0.0
 41
0.0
 42
0.0
 43
0.0
 44
0.0
 45
0.0
 46
0.0
 47
0.0
 48
0.0
 49
0.0
140
0.0
141
0.0
142
1.0
143
1.0
 70
  1712
 72
     0
 73
     0
 74
     0
  7

 75
     0
147
1.0
 76
     0
 77
     2
 78
   300
148
0.0
149
0.0
100
AcDbLayout
  1
Model
 70
     1
 71
     0
 10
0.0
 20
0.0
 11
12.0
 21
9.0
 12
0.0
 22
0.0
 32
0.0
 14
0.0
 24
0.0
 34
0.0
 15
0.0
 25
0.0
 35
0.0
146
0.0
 13
0.0
 23
0.0
 33
0.0
 16
1.0
 26
0.0
 36
0.0
 17
0.0
 27
1.0
 37
0.0
 76
     0
330
1F
331
10059
  0
MATERIAL
  5
1000D
102
{ACAD_XDICTIONARY
360
1000E
102
}
102
{ACAD_REACTORS
330
10004
102
}
330
10004
100
AcDbMaterial
  1
ByBlock
 72
     0
 43
0.0008202099737533
 43
0.0
 43
0.0
 43
0.0
 43
0.0
 43
0.0008202099737533
 43
0.0
 43
0.0
 43
0.0
 43
0.0
 43
1.0
 43
0.0
 43
0.0
 43
0.0
 43
0.0
 43
1.0
 77
     0
 47
0.0008202099737533
 47
0.0
 47
0.0
 47
0.0
 47
0.0
 47
0.0008202099737533
 47
0.0
 47
0.0
 47
0.0
 47
0.0
 47
1.0
 47
0.0
 47
0.0
 47
0.0
 47
0.0
 47
1.0
171
     0
 49
0.0008202099737533
 49
0.0
 49
0.0
 49
0.0
 49
0.0
 49
0.0008202099737533
 49
0.0
 49
0.0
 49
0.0
 49
0.0
 49
1.0
 49
0.0
 49
0.0
 49
0.0
 49
0.0
 49
1.0
175
     0
142
0.0008202099737533
142
0.0
142
0.0
142
0.0
142
0.0
142
0.0008202099737533
142
0.0
142
0.0
142
0.0
142
0.0
142
1.0
142
0.0
142
0.0
142
0.0
142
0.0
142
1.0
179
     0
144
0.0008202099737533
144
0.0
144
0.0
144
0.0
144
0.0
144
0.0008202099737533
144
0.0
144
0.0
144
0.0
144
0.0
144
1.0
144
0.0
144
0.0
144
0.0
144
0.0
144
1.0
147
0.0008202099737533
147
0.0
147
0.0
147
0.0
147
0.0
147
0.0008202099737533
147
0.0
147
0.0
147
0.0
147
0.0
147
1.0
147
0.0
147
0.0
147
0.0
147
0.0
147
1.0
  0
MATERIAL
  5
10005
102
{ACAD_XDICTIONARY
360
10006
102
}
102
{ACAD_REACTORS
330
10004
102
}
330
10004
100
AcDbMaterial
  1
ByLayer
 72
     0
 43
0.0008202099737533
 43
0.0
 43
0.0
 43
0.0
 43
0.0
 43
0.0008202099737533
 43
0.0
 43
0.0
 43
0.0
 43
0.0
 43
1.0
 43
0.0
 43
0.0
 43
0.0
 43
0.0
 43
1.0
 77
     0
 47
0.0008202099737533
 47
0.0
 47
0.0
 47
0.0
 47
0.0
 47
0.0008202099737533
 47
0.0
 47
0.0
 47
0.0
 47
0.0
 47
1.0
 47
0.0
 47
0.0
 47
0.0
 47
0.0
 47
1.0
171
     0
 49
0.0008202099737533
 49
0.0
 49
0.0
 49
0.0
 49
0.0
 49
0.0008202099737533
 49
0.0
 49
0.0
 49
0.0
 49
0.0
 49
1.0
 49
0.0
 49
0.0
 49
0.0
 49
0.0
 49
1.0
175
     0
142
0.0008202099737533
142
0.0
142
0.0
142
0.0
142
0.0
142
0.0008202099737533
142
0.0
142
0.0
142
0.0
142
0.0
142
1.0
142
0.0
142
0.0
142
0.0
142
0.0
142
1.0
179
     0
144
0.0008202099737533
144
0.0
144
0.0
144
0.0
144
0.0
144
0.0008202099737533
144
0.0
144
0.0
144
0.0
144
0.0
144
1.0
144
0.0
144
0.0
144
0.0
144
0.0
144
1.0
147
0.0008202099737533
147
0.0
147
0.0
147
0.0
147
0.0
147
0.0008202099737533
147
0.0
147
0.0
147
0.0
147
0.0
147
1.0
147
0.0
147
0.0
147
0.0
147
0.0
147
1.0
  0
MATERIAL
  5
10015
102
{ACAD_XDICTIONARY
360
10016
102
}
102
{ACAD_REACTORS
330
10004
102
}
330
10004
100
AcDbMaterial
  1
Global
 72
     0
 43
0.0008202099737533
 43
0.0
 43
0.0
 43
0.0
 43
0.0
 43
0.0008202099737533
 43
0.0
 43
0.0
 43
0.0
 43
0.0
 43
1.0
 43
0.0
 43
0.0
 43
0.0
 43
0.0
 43
1.0
 77
     0
 47
0.0008202099737533
 47
0.0
 47
0.0
 47
0.0
 47
0.0
 47
0.0008202099737533
 47
0.0
 47
0.0
 47
0.0
 47
0.0
 47
1.0
 47
0.0
 47
0.0
 47
0.0
 47
0.0
 47
1.0
171
     0
 49
0.0008202099737533
 49
0.0
 49
0.0
 49
0.0
 49
0.0
 49
0.0008202099737533
 49
0.0
 49
0.0
 49
0.0
 49
0.0
 49
1.0
 49
0.0
 49
0.0
 49
0.0
 49
0.0
 49
1.0
175
     0
142
0.0008202099737533
142
0.0
142
0.0
142
0.0
142
0.0
142
0.0008202099737533
142
0.0
142
0.0
142
0.0
142
0.0
142
1.0
142
0.0
142
0.0
142
0.0
142
0.0
142
1.0
179
     0
144
0.0008202099737533
144
0.0
144
0.0
144
0.0
144
0.0
144
0.0008202099737533
144
0.0
144
0.0
144
0.0
144
0.0
144
1.0
144
0.0
144
0.0
144
0.0
144
0.0
144
1.0
147
0.0008202099737533
147
0.0
147
0.0
147
0.0
147
0.0
147
0.0008202099737533
147
0.0
147
0.0
147
0.0
147
0.0
147
1.0
147
0.0
147
0.0
147
0.0
147
0.0
147
1.0
  0
MLEADERSTYLE
  5
1004E
102
{ACAD_REACTORS
330
1004D
102
}
330
1004D
100
AcDbMLeaderStyle
179
     2
170
     2
171
     1
172
     0
 90
        2
 40
0.0
 41
0.0
173
     1
 91
-1056964608
340
14
 92
       -2
290
     1
 42
0.09
291
     1
 43
0.36
  3
Standard
 44
0.18
300

342
11
174
     1
178
     6
175
     1
176
     0
 93
-1056964608
 45
0.18
292
     0
297
     0
 46
0.18
 94
-1056964608
 47
1.0
 49
1.0
140
1.0
293
     1
141
0.0
294
     1
177
     0
142
1.0
295
     0
296
     0
143
0.125
271
     0
272
     9
273
     9
298
     0
  0
MLINESTYLE
  5
1003A
102
{ACAD_REACTORS
330
17
102
}
330
17
100
AcDbMlineStyle
  2
STANDARD
 70
     0
  3

 62
   256
 51
90.0
 52
90.0
 71
     2
 49
0.5
 62
   256
  6
BYLAYER
 49
-0.5
 62
   256
  6
BYLAYER
  0
ACDBPLACEHOLDER
  5
10003
102
{ACAD_REACTORS
330
10002
102
}
330
10002
  0
SCALE
  5
1003C
102
{ACAD_REACTORS
330
1003B
102
}
330
1003B
100
AcDbScale
 70
     0
300
1:1
140
1.0
141
1.0
290
     1
  0
SCALE
  5
1003D
102
{ACAD_REACTORS
330
1003B
102
}
330
1003B
100
AcDbScale
 70
     0
300
1/128" = 1'-0"
140
0.0078125
141
12.0
290
     0
  0
SCALE
  5
1003E
102
{ACAD_REACTORS
330
1003B
102
}
330
1003B
100
AcDbScale
 70
     0
300
1/64" = 1'-0"
140
0.015625
141
12.0
290
     0
  0
SCALE
  5
1003F
102
{ACAD_REACTORS
330
1003B
102
}
330
1003B
100
AcDbScale
 70
     0
300
1/32" = 1'-0"
140
0.03125
141
12.0
290
     0
  0
SCALE
  5
10040
102
{ACAD_REACTORS
330
1003B
102
}
330
1003B
100
AcDbScale
 70
     0
300
1/16" = 1'-0"
140
0.0625
141
12.0
290
     0
  0
SCALE
  5
10041
102
{ACAD_REACTORS
330
1003B
102
}
330
1003B
100
AcDbScale
 70
     0
300
3/32" = 1'-0"
140
0.09375
141
12.0
290
     0
  0
SCALE
  5
10042
102
{ACAD_REACTORS
330
1003B
102
}
330
1003B
100
AcDbScale
 70
     0
300
1/8" = 1'-0"
140
0.125
141
12.0
290
     0
  0
SCALE
  5
10043
102
{ACAD_REACTORS
330
1003B
102
}
330
1003B
100
AcDbScale
 70
     0
300
3/16" = 1'-0"
140
0.1875
141
12.0
290
     0
  0
SCALE
  5
10044
102
{ACAD_REACTORS
330
1003B
102
}
330
1003B
100
AcDbScale
 70
     0
300
1/4" = 1'-0"
140
0.25
141
12.0
290
     0
  0
SCALE
  5
10045
102
{ACAD_REACTORS
330
1003B
102
}
330
1003B
100
AcDbScale
 70
     0
300
3/8" = 1'-0"
140
0.375
141
12.0
290
     0
  0
SCALE
  5
10046
102
{ACAD_REACTORS
330
1003B
102
}
330
1003B
100
AcDbScale
 70
     0
300
1/2" = 1'-0"
140
0.5
141
12.0
290
     0
  0
SCALE
  5
10047
102
{ACAD_REACTORS
330
1003B
102
}
330
1003B
100
AcDbScale
 70
     0
300
3/4" = 1'-0"
140
0.75
141
12.0
290
     0
  0
SCALE
  5
10048
102
{ACAD_REACTORS
330
1003B
102
}
330
1003B
100
AcDbScale
 70
     0
300
1" = 1'-0"
140
1.0
141
12.0
290
     0
  0
SCALE
  5
10049
102
{ACAD_REACTORS
330
1003B
102
}
330
1003B
100
AcDbScale
 70
     0
300
1-1/2" = 1'-0"
140
1.5
141
12.0
290
     0
  0
SCALE
  5
1004A
102
{ACAD_REACTORS
330
1003B
102
}
330
1003B
100
AcDbScale
 70
     0
300
3" = 1'-0"
140
3.0
141
12.0
290
     0
  0
SCALE
  5
1004B
102
{ACAD_REACTORS
330
1003B
102
}
330
1003B
100
AcDbScale
 70
     0
300
6" = 1'-0"
140
6.0
141
12.0
290
     0
  0
SCALE
  5
1004C
102
{ACAD_REACTORS
330
1003B
102
}
330
1003B
100
AcDbScale
 70
     0
300
1'-0" = 1'-0"
140
12.0
141
12.0
290
     0
  0
ACDBSECTIONVIEWSTYLE
  5
10050
102
{ACAD_XDICTIONARY
360
1029F
102
}
102
{ACAD_REACTORS
330
1004F
102
}
330
1004F
100
AcDbModelDocViewStyle
 70
     0
  3
Imperial24
290
     0
100
AcDbSectionViewStyle
 70
     0
 71
     0
 90
       78
 71
     1
340
11
 62
   256
 40
0.24
340
0
340
0
 62
   256
 40
0.24
300
I, O, Q, S, X, Z
 40
0.48
 90
        3
 40
0.18
 90
        1
 71
     2
340
0
 90
       25
 62
   256
340
0
 90
       50
 62
   256
 40
0.24
 40
0.0
 40
0.24
 71
     3
340
11
 62
   256
 40
0.24
 90
        1
 40
0.75
 90
        1
300
%<\AcVar ViewType \f "%tc1">% %<\AcVar ViewSectionStartId>%-%<\AcVar ViewSectionEndId>%\PSCALE %<\AcVar ViewScale \f "%sn">%
 71
     4
 62
   256
 62
   257
300
ANSI31
 40
1.0
 90
        0
290
     0
290
     0
 90
        6
 40
0.0
 40
1.570796326794896
 40
0.2617993877991494
 40
1.308996938995747
 40
-0.2617993877991494
 40
1.832595714594046
  0
TABLESTYLE
  5
10039
102
{ACAD_XDICTIONARY
360
10294
102
}
102
{ACAD_REACTORS
330
10038
102
}
330
10038
100
AcDbTableStyle
280
     0
  3
Standard
 70
     0
 71
     0
 40
0.06
 41
0.06
280
     0
281
     0
  7
STANDARD
140
0.18
170
     2
 62
     0
 63
     7
283
     0
 90
      512
 91
        0
  1

274
    -2
284
     1
 64
     0
275
    -2
285
     1
 65
     0
276
    -2
286
     1
 66
     0
277
    -2
287
     1
 67
     0
278
    -2
288
     1
 68
     0
279
    -2
289
     1
 69
     0
  7
STANDARD
140
0.25
170
     5
 62
     0
 63
     7
283
     0
 90
      512
 91
        0
  1

274
    -2
284
     1
 64
     0
275
    -2
285
     1
 65
     0
276
    -2
286
     1
 66
     0
277
    -2
287
     1
 67
     0
278
    -2
288
     1
 68
     0
279
    -2
289
     1
 69
     0
  7
STANDARD
140
0.18
170
     5
 62
     0
 63
     7
283
     0
 90
      512
 91
        0
  1

274
    -2
284
     1
 64
     0
275
    -2
285
     1
 65
     0
276
    -2
286
     1
 66
     0
277
    -2
287
     1
 67
     0
278
    -2
288
     1
 68
     0
279
    -2
289
     1
 69
     0
  0
VISUALSTYLE
  5
10023
102
{ACAD_REACTORS
330
1001D
102
}
330
1001D
100
AcDbVisualStyle
  2
2dWireframe
 70
     4
177
     3
291
     0
 70
    58
 90
        0
176
     1
 90
        2
176
     1
 90
        0
176
     1
 90
        0
176
     1
 40
0.6
176
     1
 40
30.0
176
     1
 62
     7
420
 16777215
176
     1
 90
        1
176
     1
 90
        4
176
     1
 62
     7
176
     1
 62
   257
176
     1
 90
        1
176
     1
 90
        1
176
     1
 40
1.0
176
     1
 90
        0
176
     1
 62
   257
176
     1
 40
1.0
176
     1
 90
        1
176
     1
 90
        6
176
     1
 90
        2
176
     1
 62
     7
176
     1
 90
        5
176
     1
 90
        0
176
     1
 90
        0
176
     1
290
     0
176
     1
 90
        1
176
     1
 40
0.0
176
     1
 90
        0
176
     1
290
     1
176
     1
290
     1
176
     1
290
     0
176
     1
290
     0
176
     1
290
     0
176
     1
290
     0
176
     1
290
     0
176
     1
290
     0
176
     1
290
     0
176
     1
 90
       50
176
     1
 40
0.0
176
     1
 40
1.0
176
     1
 90
        0
176
     1
 62
    18
420
        0
176
     1
 90
       50
176
     1
 90
        3
176
     1
 62
     5
420
      255
176
     1
290
     0
176
     1
 90
       50
176
     1
 90
       50
176
     1
 90
       50
176
     1
290
     0
176
     1
 90
       50
176
     1
 62
   256
176
     0
 40
1.0
176
     0
 90
        2
176
     1
  1
strokes_ogs.tif
176
     1
290
     0
176
     1
 40
1.0
176
     1
 40
1.0
176
     1
1001
ACAD
1000
AcDbSavedByObjectVersion
1070
     0
  0
VISUALSTYLE
  5
10022
102
{ACAD_REACTORS
330
1001D
102
}
330
1001D
100
AcDbVisualStyle
  2
Basic
 70
     7
177
     3
291
     1
 70
    58
 90
        1
176
     1
 90
        0
176
     1
 90
        1
176
     1
 90
        0
176
     1
 40
0.6
176
     1
 40
30.0
176
     1
 62
     7
420
 16777215
176
     1
 90
        0
176
     1
 90
        4
176
     1
 62
     7
176
     1
 62
   257
176
     1
 90
        1
176
     1
 90
        1
176
     1
 40
1.0
176
     1
 90
        8
176
     1
 62
     7
176
     1
 40
1.0
176
     1
 90
        1
176
     1
 90
        6
176
     1
 90
        2
176
     1
 62
     7
176
     1
 90
        5
176
     1
 90
        0
176
     1
 90
        0
176
     1
290
     0
176
     1
 90
        1
176
     1
 40
0.0
176
     1
 90
        0
176
     1
290
     0
176
     1
290
     1
176
     1
290
     1
176
     1
290
     0
176
     1
290
     0
176
     1
290
     0
176
     1
290
     0
176
     1
290
     0
176
     1
290
     0
176
     1
 90
       50
176
     1
 40
0.0
176
     1
 40
1.0
176
     1
 90
        0
176
     1
 62
    18
420
        0
176
     1
 90
       50
176
     1
 90
        3
176
     1
 62
     5
420
      255
176
     1
290
     0
176
     1
 90
       50
176
     1
 90
       50
176
     1
 90
       50
176
     1
290
     0
176
     1
 90
       50
176
     1
 62
   256
176
     0
 40
1.0
176
     0
 90
        2
176
     1
  1
strokes_ogs.tif
176
     1
290
     0
176
     1
 40
1.0
176
     1
 40
1.0
176
     1
1001
ACAD
1000
AcDbSavedByObjectVersion
1070
     0
  0
VISUALSTYLE
  5
10029
102
{ACAD_REACTORS
330
1001D
102
}
330
1001D
100
AcDbVisualStyle
  2
Brighten
 70
    12
177
     3
291
     1
 70
    58
 90
        2
176
     1
 90
        2
176
     1
 90
        0
176
     1
 90
        0
176
     1
 40
0.6
176
     1
 40
30.0
176
     1
 62
     7
420
 16777215
176
     1
 90
        1
176
     1
 90
        4
176
     1
 62
     7
176
     1
 62
   257
176
     1
 90
        1
176
     1
 90
        1
176
     1
 40
1.0
176
     1
 90
        8
176
     1
 62
     7
176
     1
 40
1.0
176
     1
 90
        1
176
     1
 90
        6
176
     1
 90
        2
176
     1
 62
     7
176
     1
 90
        5
176
     1
 90
        0
176
     1
 90
        0
176
     1
290
     0
176
     1
 90
        1
176
     1
 40
50.0
176
     1
 90
        0
176
     1
290
     0
176
     1
290
     1
176
     1
290
     1
176
     1
290
     0
176
     1
290
     0
176
     1
290
     0
176
     1
290
     0
176
     1
290
     0
176
     1
290
     0
176
     1
 90
       50
176
     1
 40
0.0
176
     1
 40
1.0
176
     1
 90
        0
176
     1
 62
    18
420
        0
176
     1
 90
       50
176
     1
 90
        3
176
     1
 62
     5
420
      255
176
     1
290
     0
176
     1
 90
       50
176
     1
 90
       50
176
     1
 90
       50
176
     1
290
     0
176
     1
 90
       50
176
     1
 62
   256
176
     0
 40
1.0
176
     0
 90
        2
176
     1
  1
strokes_ogs.tif
176
     1
290
     0
176
     1
 40
1.0
176
     1
 40
1.0
176
     1
1001
ACAD
1000
AcDbSavedByObjectVersion
1070
     0
  0
VISUALSTYLE
  5
1002D
102
{ACAD_REACTORS
330
1001D
102
}
330
1001D
100
AcDbVisualStyle
  2
ColorChange
 70
    16
177
     3
291
     1
 70
    58
 90
        2
176
     1
 90
        2
176
     1
 90
        3
176
     1
 90
        0
176
     1
 40
0.6
176
     1
 40
30.0
176
     1
 62
     8
420
  8421504
176
     1
 90
        1
176
     1
 90
        4
176
     1
 62
     7
176
     1
 62
   257
176
     1
 90
        1
176
     1
 90
        1
176
     1
 40
1.0
176
     1
 90
        8
176
     1
 62
     8
420
  8421504
176
     1
 40
1.0
176
     1
 90
        1
176
     1
 90
        6
176
     1
 90
        2
176
     1
 62
     7
176
     1
 90
        5
176
     1
 90
        0
176
     1
 90
        0
176
     1
290
     0
176
     1
 90
        1
176
     1
 40
0.0
176
     1
 90
        0
176
     1
290
     0
176
     1
290
     1
176
     1
290
     1
176
     1
290
     0
176
     1
290
     0
176
     1
290
     0
176
     1
290
     0
176
     1
290
     0
176
     1
290
     0
176
     1
 90
       50
176
     1
 40
0.0
176
     1
 40
1.0
176
     1
 90
        0
176
     1
 62
    18
420
        0
176
     1
 90
       50
176
     1
 90
        3
176
     1
 62
     5
420
      255
176
     1
290
     0
176
     1
 90
       50
176
     1
 90
       50
176
     1
 90
       50
176
     1
290
     0
176
     1
 90
       50
176
     1
 62
   256
176
     0
 40
1.0
176
     0
 90
        2
176
     1
  1
strokes_ogs.tif
176
     1
290
     0
176
     1
 40
1.0
176
     1
 40
1.0
176
     1
1001
ACAD
1000
AcDbSavedByObjectVersion
1070
     0
  0
VISUALSTYLE
  5
10026
102
{ACAD_REACTORS
330
1001D
102
}
330
1001D
100
AcDbVisualStyle
  2
Conceptual
 70
     9
177
     3
291
     0
 70
    58
 90
        3
176
     1
 90
        2
176
     1
 90
        0
176
     1
 90
        0
176
     1
 40
0.6
176
     1
 40
30.0
176
     1
 62
     7
420
 16777215
176
     1
 90
        2
176
     1
 90
        2
176
     1
 62
     7
176
     1
 62
   257
176
     1
 90
        1
176
     1
 90
        1
176
     1
 40
179.0
176
     1
 90
        8
176
     1
 62
     7
176
     1
 40
1.0
176
     1
 90
        1
176
     1
 90
        6
176
     1
 90
        2
176
     1
 62
     7
176
     1
 90
        3
176
     1
 90
        0
176
     1
 90
        0
176
     1
290
     0
176
     1
 90
        1
176
     1
 40
0.0
176
     1
 90
        0
176
     1
290
     0
176
     1
290
     1
176
     1
290
     1
176
     1
290
     0
176
     1
290
     0
176
     1
290
     0
176
     1
290
     0
176
     1
290
     0
176
     1
290
     0
176
     1
 90
       50
176
     1
 40
0.0
176
     1
 40
1.0
176
     1
 90
        0
176
     1
 62
    18
420
        0
176
     1
 90
       50
176
     1
 90
        3
176
     1
 62
     5
420
      255
176
     1
290
     0
176
     1
 90
       50
176
     1
 90
       50
176
     1
 90
       50
176
     1
290
     0
176
     1
 90
       50
176
     1
 62
   256
176
     0
 40
1.0
176
     0
 90
        2
176
     1
  1
strokes_ogs.tif
176
     1
290
     0
176
     1
 40
1.0
176
     1
 40
1.0
176
     1
1001
ACAD
1000
AcDbSavedByObjectVersion
1070
     0
  0
VISUALSTYLE
  5
10028
102
{ACAD_REACTORS
330
1001D
102
}
330
1001D
100
AcDbVisualStyle
  2
Dim
 70
    11
177
     3
291
     1
 70
    58
 90
        2
176
     1
 90
        2
176
     1
 90
        0
176
     1
 90
        0
176
     1
 40
0.6
176
     1
 40
30.0
176
     1
 62
     7
420
 16777215
176
     1
 90
        1
176
     1
 90
        4
176
     1
 62
     7
176
     1
 62
   257
176
     1
 90
        1
176
     1
 90
        1
176
     1
 40
1.0
176
     1
 90
        8
176
     1
 62
     7
176
     1
 40
1.0
176
     1
 90
        1
176
     1
 90
        6
176
     1
 90
        2
176
     1
 62
     7
176
     1
 90
        5
176
     1
 90
        0
176
     1
 90
        0
176
     1
290
     0
176
     1
 90
        1
176
     1
 40
-50.0
176
     1
 90
        0
176
     1
290
     0
176
     1
290
     1
176
     1
290
     1
176
     1
290
     0
176
     1
290
     0
176
     1
290
     0
176
     1
290
     0
176
     1
290
     0
176
     1
290
     0
176
     1
 90
       50
176
     1
 40
0.0
176
     1
 40
1.0
176
     1
 90
        0
176
     1
 62
    18
420
        0
176
     1
 90
       50
176
     1
 90
        3
176
     1
 62
     5
420
      255
176
     1
290
     0
176
     1
 90
       50
176
     1
 90
       50
176
     1
 90
       50
176
     1
290
     0
176
     1
 90
       50
176
     1
 62
   256
176
     0
 40
1.0
176
     0
 90
        2
176
     1
  1
strokes_ogs.tif
176
     1
290
     0
176
     1
 40
1.0
176
     1
 40
1.0
176
     1
1001
ACAD
1000
AcDbSavedByObjectVersion
1070
     0
  0
VISUALSTYLE
  5
10035
102
{ACAD_REACTORS
330
1001D
102
}
330
1001D
100
AcDbVisualStyle
  2
EdgeColorOff
 70
    22
177
     3
291
     1
 70
    58
 90
        2
176
     0
 90
        2
176
     0
 90
        0
176
     0
 90
        0
176
     0
 40
0.6
176
     0
 40
30.0
176
     0
 62
     7
420
 16777215
176
     0
 90
        1
176
     0
 90
        4
176
     0
 62
     7
176
     0
 62
   257
176
     0
 90
        1
176
     0
 90
        1
176
     0
 40
1.0
176
     0
 90
        8
176
     2
 62
     7
176
     0
 40
1.0
176
     0
 90
        1
176
     0
 90
        6
176
     0
 90
        2
176
     0
 62
     7
176
     0
 90
        5
176
     0
 90
        0
176
     0
 90
        0
176
     0
290
     0
176
     0
 90
        1
176
     0
 40
0.0
176
     0
 90
        0
176
     0
290
     0
176
     1
290
     1
176
     1
290
     1
176
     1
290
     0
176
     1
290
     0
176
     1
290
     0
176
     1
290
     0
176
     1
290
     0
176
     1
290
     0
176
     1
 90
       50
176
     0
 40
0.0
176
     0
 40
1.0
176
     0
 90
        0
176
     0
 62
    18
420
        0
176
     0
 90
       50
176
     0
 90
        3
176
     0
 62
     5
420
      255
176
     0
290
     0
176
     1
 90
       50
176
     0
 90
       50
176
     0
 90
       50
176
     0
290
     0
176
     1
 90
       50
176
     0
 62
   256
176
     0
 40
1.0
176
     0
 90
        2
176
     0
  1
strokes_ogs.tif
176
     0
290
     0
176
     1
 40
1.0
176
     0
 40
1.0
176
     0
1001
ACAD
1000
AcDbSavedByObjectVersion
1070
     0
  0
VISUALSTYLE
  5
1002C
102
{ACAD_REACTORS
330
1001D
102
}
330
1001D
100
AcDbVisualStyle
  2
Facepattern
 70
    15
177
     3
291
     1
 70
    58
 90
        2
176
     1
 90
        2
176
     1
 90
        0
176
     1
 90
        0
176
     1
 40
0.6
176
     1
 40
30.0
176
     1
 62
     7
420
 16777215
176
     1
 90
        1
176
     1
 90
        4
176
     1
 62
     7
176
     1
 62
   257
176
     1
 90
        1
176
     1
 90
        1
176
     1
 40
1.0
176
     1
 90
        8
176
     1
 62
     7
176
     1
 40
1.0
176
     1
 90
        1
176
     1
 90
        6
176
     1
 90
        2
176
     1
 62
     7
176
     1
 90
        5
176
     1
 90
        0
176
     1
 90
        0
176
     1
290
     0
176
     1
 90
        1
176
     1
 40
0.0
176
     1
 90
        0
176
     1
290
     0
176
     1
290
     1
176
     1
290
     1
176
     1
290
     0
176
     1
290
     0
176
     1
290
     0
176
     1
290
     0
176
     1
290
     0
176
     1
290
     0
176
     1
 90
       50
176
     1
 40
0.0
176
     1
 40
1.0
176
     1
 90
        0
176
     1
 62
    18
420
        0
176
     1
 90
       50
176
     1
 90
        3
176
     1
 62
     5
420
      255
176
     1
290
     0
176
     1
 90
       50
176
     1
 90
       50
176
     1
 90
       50
176
     1
290
     0
176
     1
 90
       50
176
     1
 62
   256
176
     0
 40
1.0
176
     0
 90
        2
176
     1
  1
strokes_ogs.tif
176
     1
290
     0
176
     1
 40
1.0
176
     1
 40
1.0
176
     1
1001
ACAD
1000
AcDbSavedByObjectVersion
1070
     0
  0
VISUALSTYLE
  5
1001E
102
{ACAD_REACTORS
330
1001D
102
}
330
1001D
100
AcDbVisualStyle
  2
Flat
 70
     0
177
     3
291
     1
 70
    58
 90
        2
176
     1
 90
        1
176
     1
 90
        1
176
     1
 90
        2
176
     1
 40
0.6
176
     1
 40
30.0
176
     1
 62
     7
420
 16777215
176
     1
 90
        0
176
     1
 90
        0
176
     1
 62
     7
176
     1
 62
   257
176
     1
 90
        1
176
     1
 90
        1
176
     1
 40
1.0
176
     1
 90
        8
176
     1
 62
     7
176
     1
 40
1.0
176
     1
 90
        1
176
     1
 90
        6
176
     1
 90
        2
176
     1
 62
     7
176
     1
 90
        5
176
     1
 90
        0
176
     1
 90
        0
176
     1
290
     0
176
     1
 90
       13
176
     1
 40
0.0
176
     1
 90
        0
176
     1
290
     0
176
     1
290
     1
176
     1
290
     1
176
     1
290
     0
176
     1
290
     0
176
     1
290
     0
176
     1
290
     0
176
     1
290
     0
176
     1
290
     0
176
     1
 90
       50
176
     1
 40
0.0
176
     1
 40
1.0
176
     1
 90
        0
176
     1
 62
    18
420
        0
176
     1
 90
       50
176
     1
 90
        3
176
     1
 62
     5
420
      255
176
     1
290
     0
176
     1
 90
       50
176
     1
 90
       50
176
     1
 90
       50
176
     1
290
     0
176
     1
 90
       50
176
     1
 62
   256
176
     0
 40
1.0
176
     0
 90
        2
176
     1
  1
strokes_ogs.tif
176
     1
290
     0
176
     1
 40
1.0
176
     1
 40
1.0
176
     1
1001
ACAD
1000
AcDbSavedByObjectVersion
1070
     0
  0
VISUALSTYLE
  5
1001F
102
{ACAD_REACTORS
330
1001D
102
}
330
1001D
100
AcDbVisualStyle
  2
FlatWithEdges
 70
     1
177
     3
291
     1
 70
    58
 90
        2
176
     1
 90
        1
176
     1
 90
        1
176
     1
 90
        2
176
     1
 40
0.6
176
     1
 40
30.0
176
     1
 62
     7
420
 16777215
176
     1
 90
        1
176
     1
 90
        0
176
     1
 62
     7
176
     1
 62
   257
176
     1
 90
        1
176
     1
 90
        1
176
     1
 40
1.0
176
     1
 90
        0
176
     1
 62
   257
176
     1
 40
1.0
176
     1
 90
        1
176
     1
 90
        6
176
     1
 90
        2
176
     1
 62
     7
176
     1
 90
        5
176
     1
 90
        0
176
     1
 90
        0
176
     1
290
     0
176
     1
 90
       13
176
     1
 40
0.0
176
     1
 90
        0
176
     1
290
     0
176
     1
290
     1
176
     1
290
     1
176
     1
290
     0
176
     1
290
     0
176
     1
290
     0
176
     1
290
     0
176
     1
290
     0
176
     1
290
     0
176
     1
 90
       50
176
     1
 40
0.0
176
     1
 40
1.0
176
     1
 90
        0
176
     1
 62
    18
420
        0
176
     1
 90
       50
176
     1
 90
        3
176
     1
 62
     5
420
      255
176
     1
290
     0
176
     1
 90
       50
176
     1
 90
       50
176
     1
 90
       50
176
     1
290
     0
176
     1
 90
       50
176
     1
 62
   256
176
     0
 40
1.0
176
     0
 90
        2
176
     1
  1
strokes_ogs.tif
176
     1
290
     0
176
     1
 40
1.0
176
     1
 40
1.0
176
     1
1001
ACAD
1000
AcDbSavedByObjectVersion
1070
     0
  0
VISUALSTYLE
  5
10020
102
{ACAD_REACTORS
330
1001D
102
}
330
1001D
100
AcDbVisualStyle
  2
Gouraud
 70
     2
177
     3
291
     1
 70
    58
 90
        2
176
     1
 90
        2
176
     1
 90
        1
176
     1
 90
        2
176
     1
 40
0.6
176
     1
 40
30.0
176
     1
 62
     7
420
 16777215
176
     1
 90
        0
176
     1
 90
        0
176
     1
 62
     7
176
     1
 62
   257
176
     1
 90
        1
176
     1
 90
        1
176
     1
 40
1.0
176
     1
 90
        0
176
     1
 62
     7
176
     1
 40
1.0
176
     1
 90
        1
176
     1
 90
        6
176
     1
 90
        2
176
     1
 62
     7
176
     1
 90
        5
176
     1
 90
        0
176
     1
 90
        0
176
     1
290
     0
176
     1
 90
       13
176
     1
 40
0.0
176
     1
 90
        0
176
     1
290
     0
176
     1
290
     1
176
     1
290
     1
176
     1
290
     0
176
     1
290
     0
176
     1
290
     0
176
     1
290
     0
176
     1
290
     0
176
     1
290
     0
176
     1
 90
       50
176
     1
 40
0.0
176
     1
 40
1.0
176
     1
 90
        0
176
     1
 62
    18
420
        0
176
     1
 90
       50
176
     1
 90
        3
176
     1
 62
     5
420
      255
176
     1
290
     0
176
     1
 90
       50
176
     1
 90
       50
176
     1
 90
       50
176
     1
290
     0
176
     1
 90
       50
176
     1
 62
   256
176
     0
 40
1.0
176
     0
 90
        2
176
     1
  1
strokes_ogs.tif
176
     1
290
     0
176
     1
 40
1.0
176
     1
 40
1.0
176
     1
1001
ACAD
1000
AcDbSavedByObjectVersion
1070
     0
  0
VISUALSTYLE
  5
10021
102
{ACAD_REACTORS
330
1001D
102
}
330
1001D
100
AcDbVisualStyle
  2
GouraudWithEdges
 70
     3
177
     3
291
     1
 70
    58
 90
        2
176
     1
 90
        2
176
     1
 90
        1
176
     1
 90
        2
176
     1
 40
0.6
176
     1
 40
30.0
176
     1
 62
     7
420
 16777215
176
     1
 90
        1
176
     1
 90
        0
176
     1
 62
     7
176
     1
 62
   257
176
     1
 90
        1
176
     1
 90
        1
176
     1
 40
1.0
176
     1
 90
        0
176
     1
 62
   257
176
     1
 40
1.0
176
     1
 90
        1
176
     1
 90
        6
176
     1
 90
        2
176
     1
 62
     7
176
     1
 90
        5
176
     1
 90
        0
176
     1
 90
        0
176
     1
290
     0
176
     1
 90
       13
176
     1
 40
0.0
176
     1
 90
        0
176
     1
290
     0
176
     1
290
     1
176
     1
290
     1
176
     1
290
     0
176
     1
290
     0
176
     1
290
     0
176
     1
290
     0
176
     1
290
     0
176
     1
290
     0
176
     1
 90
       50
176
     1
 40
0.0
176
     1
 40
1.0
176
     1
 90
        0
176
     1
 62
    18
420
        0
176
     1
 90
       50
176
     1
 90
        3
176
     1
 62
     5
420
      255
176
     1
290
     0
176
     1
 90
       50
176
     1
 90
       50
176
     1
 90
       50
176
     1
290
     0
176
     1
 90
       50
176
     1
 62
   256
176
     0
 40
1.0
176
     0
 90
        2
176
     1
  1
strokes_ogs.tif
176
     1
290
     0
176
     1
 40
1.0
176
     1
 40
1.0
176
     1
1001
ACAD
1000
AcDbSavedByObjectVersion
1070
     0
  0
VISUALSTYLE
  5
10025
102
{ACAD_REACTORS
330
1001D
102
}
330
1001D
100
AcDbVisualStyle
  2
Hidden
 70
     6
177
     3
291
     0
 70
    58
 90
        1
176
     1
 90
        2
176
     1
 90
        2
176
     1
 90
        0
176
     1
 40
0.6
176
     1
 40
30.0
176
     1
 62
     7
420
 16777215
176
     1
 90
        2
176
     1
 90
        2
176
     1
 62
     7
176
     1
 62
   257
176
     1
 90
        2
176
     1
 90
        1
176
     1
 40
40.0
176
     1
 90
        0
176
     1
 62
   257
176
     1
 40
1.0
176
     1
 90
        1
176
     1
 90
        6
176
     1
 90
        2
176
     1
 62
     7
176
     1
 90
        3
176
     1
 90
        0
176
     1
 90
        0
176
     1
290
     0
176
     1
 90
        1
176
     1
 40
0.0
176
     1
 90
        0
176
     1
290
     0
176
     1
290
     1
176
     1
290
     1
176
     1
290
     0
176
     1
290
     0
176
     1
290
     0
176
     1
290
     0
176
     1
290
     0
176
     1
290
     0
176
     1
 90
       50
176
     1
 40
0.0
176
     1
 40
1.0
176
     1
 90
        0
176
     1
 62
    18
420
        0
176
     1
 90
       50
176
     1
 90
        3
176
     1
 62
     5
420
      255
176
     1
290
     0
176
     1
 90
       50
176
     1
 90
       50
176
     1
 90
       50
176
     1
290
     0
176
     1
 90
       50
176
     1
 62
   256
176
     0
 40
1.0
176
     0
 90
        2
176
     1
  1
strokes_ogs.tif
176
     1
290
     0
176
     1
 40
1.0
176
     1
 40
1.0
176
     1
1001
ACAD
1000
AcDbSavedByObjectVersion
1070
     0
  0
VISUALSTYLE
  5
10033
102
{ACAD_REACTORS
330
1001D
102
}
330
1001D
100
AcDbVisualStyle
  2
JitterOff
 70
    20
177
     3
291
     1
 70
    58
 90
        2
176
     0
 90
        2
176
     0
 90
        0
176
     0
 90
        0
176
     0
 40
0.6
176
     0
 40
30.0
176
     0
 62
     7
420
 16777215
176
     0
 90
        1
176
     0
 90
        4
176
     0
 62
     7
176
     0
 62
   257
176
     0
 90
        1
176
     0
 90
        1
176
     0
 40
1.0
176
     0
 90
       10
176
     2
 62
     7
176
     0
 40
1.0
176
     0
 90
        1
176
     0
 90
        6
176
     0
 90
        2
176
     0
 62
     7
176
     0
 90
        5
176
     0
 90
        0
176
     0
 90
        0
176
     0
290
     0
176
     0
 90
        1
176
     0
 40
0.0
176
     0
 90
        0
176
     0
290
     0
176
     1
290
     1
176
     1
290
     1
176
     1
290
     0
176
     1
290
     0
176
     1
290
     0
176
     1
290
     0
176
     1
290
     0
176
     1
290
     0
176
     1
 90
       50
176
     0
 40
0.0
176
     0
 40
1.0
176
     0
 90
        0
176
     0
 62
    18
420
        0
176
     0
 90
       50
176
     0
 90
        3
176
     0
 62
     5
420
      255
176
     0
290
     0
176
     1
 90
       50
176
     0
 90
       50
176
     0
 90
       50
176
     0
290
     0
176
     1
 90
       50
176
     0
 62
   256
176
     0
 40
1.0
176
     0
 90
        2
176
     0
  1
strokes_ogs.tif
176
     0
290
     0
176
     1
 40
1.0
176
     0
 40
1.0
176
     0
1001
ACAD
1000
AcDbSavedByObjectVersion
1070
     0
  0
VISUALSTYLE
  5
1002B
102
{ACAD_REACTORS
330
1001D
102
}
330
1001D
100
AcDbVisualStyle
  2
Linepattern
 70
    14
177
     3
291
     1
 70
    58
 90
        2
176
     1
 90
        2
176
     1
 90
        0
176
     1
 90
        0
176
     1
 40
0.6
176
     1
 40
30.0
176
     1
 62
     7
420
 16777215
176
     1
 90
        1
176
     1
 90
        4
176
     1
 62
     7
176
     1
 62
   257
176
     1
 90
        7
176
     1
 90
        7
176
     1
 40
1.0
176
     1
 90
        8
176
     1
 62
     7
176
     1
 40
1.0
176
     1
 90
        1
176
     1
 90
        6
176
     1
 90
        2
176
     1
 62
     7
176
     1
 90
        5
176
     1
 90
        0
176
     1
 90
        0
176
     1
290
     0
176
     1
 90
        1
176
     1
 40
0.0
176
     1
 90
        0
176
     1
290
     0
176
     1
290
     1
176
     1
290
     1
176
     1
290
     0
176
     1
290
     0
176
     1
290
     0
176
     1
290
     0
176
     1
290
     0
176
     1
290
     0
176
     1
 90
       50
176
     1
 40
0.0
176
     1
 40
1.0
176
     1
 90
        0
176
     1
 62
    18
420
        0
176
     1
 90
       50
176
     1
 90
        3
176
     1
 62
     5
420
      255
176
     1
290
     0
176
     1
 90
       50
176
     1
 90
       50
176
     1
 90
       50
176
     1
290
     0
176
     1
 90
       50
176
     1
 62
   256
176
     0
 40
1.0
176
     0
 90
        2
176
     1
  1
strokes_ogs.tif
176
     1
290
     0
176
     1
 40
1.0
176
     1
 40
1.0
176
     1
1001
ACAD
1000
AcDbSavedByObjectVersion
1070
     0
  0
VISUALSTYLE
  5
10034
102
{ACAD_REACTORS
330
1001D
102
}
330
1001D
100
AcDbVisualStyle
  2
OverhangOff
 70
    21
177
     3
291
     1
 70
    58
 90
        2
176
     0
 90
        2
176
     0
 90
        0
176
     0
 90
        0
176
     0
 40
0.6
176
     0
 40
30.0
176
     0
 62
     7
420
 16777215
176
     0
 90
        1
176
     0
 90
        4
176
     0
 62
     7
176
     0
 62
   257
176
     0
 90
        1
176
     0
 90
        1
176
     0
 40
1.0
176
     0
 90
        9
176
     2
 62
     7
176
     0
 40
1.0
176
     0
 90
        1
176
     0
 90
        6
176
     0
 90
        2
176
     0
 62
     7
176
     0
 90
        5
176
     0
 90
        0
176
     0
 90
        0
176
     0
290
     0
176
     0
 90
        1
176
     0
 40
0.0
176
     0
 90
        0
176
     0
290
     0
176
     1
290
     1
176
     1
290
     1
176
     1
290
     0
176
     1
290
     0
176
     1
290
     0
176
     1
290
     0
176
     1
290
     0
176
     1
290
     0
176
     1
 90
       50
176
     0
 40
0.0
176
     0
 40
1.0
176
     0
 90
        0
176
     0
 62
    18
420
        0
176
     0
 90
       50
176
     0
 90
        3
176
     0
 62
     5
420
      255
176
     0
290
     0
176
     1
 90
       50
176
     0
 90
       50
176
     0
 90
       50
176
     0
290
     0
176
     1
 90
       50
176
     0
 62
   256
176
     0
 40
1.0
176
     0
 90
        2
176
     0
  1
strokes_ogs.tif
176
     0
290
     0
176
     1
 40
1.0
176
     0
 40
1.0
176
     0
1001
ACAD
1000
AcDbSavedByObjectVersion
1070
     0
  0
VISUALSTYLE
  5
10027
102
{ACAD_REACTORS
330
1001D
102
}
330
1001D
100
AcDbVisualStyle
  2
Realistic
 70
     8
177
     3
291
     0
 70
    58
 90
        2
176
     1
 90
        3
176
     1
 90
        0
176
     1
 90
        2
176
     1
 40
0.6
176
     1
 40
30.0
176
     1
 62
     7
420
 16777215
176
     1
 90
        0
176
     1
 90
        0
176
     1
 62
     7
176
     1
 62
   257
176
     1
 90
        1
176
     1
 90
        1
176
     1
 40
1.0
176
     1
 90
        8
176
     1
 62
   257
176
     1
 40
1.0
176
     1
 90
        1
176
     1
 90
        6
176
     1
 90
        2
176
     1
 62
     7
176
     1
 90
        3
176
     1
 90
        0
176
     1
 90
        0
176
     1
290
     0
176
     1
 90
       13
176
     1
 40
0.0
176
     1
 90
        0
176
     1
290
     0
176
     1
290
     1
176
     1
290
     1
176
     1
290
     0
176
     1
290
     0
176
     1
290
     0
176
     1
290
     0
176
     1
290
     0
176
     1
290
     0
176
     1
 90
       50
176
     1
 40
0.0
176
     1
 40
1.0
176
     1
 90
        0
176
     1
 62
    18
420
        0
176
     1
 90
       50
176
     1
 90
        3
176
     1
 62
     5
420
      255
176
     1
290
     0
176
     1
 90
       50
176
     1
 90
       50
176
     1
 90
       50
176
     1
290
     0
176
     1
 90
       50
176
     1
 62
   256
176
     0
 40
1.0
176
     0
 90
        2
176
     1
  1
strokes_ogs.tif
176
     1
290
     0
176
     1
 40
1.0
176
     1
 40
1.0
176
     1
1001
ACAD
1000
AcDbSavedByObjectVersion
1070
     0
  0
VISUALSTYLE
  5
10032
102
{ACAD_REACTORS
330
1001D
102
}
330
1001D
100
AcDbVisualStyle
  2
Shaded
 70
    27
177
     3
291
     0
 70
    58
 90
        2
176
     1
 90
        2
176
     1
 90
        1
176
     1
 90
        2
176
     1
 40
0.6
176
     1
 40
30.0
176
     1
 62
     7
420
 16777215
176
     1
 90
        0
176
     1
 90
        4
176
     1
 62
     7
176
     1
 62
   257
176
     1
 90
        1
176
     1
 90
        1
176
     1
 40
1.0
176
     1
 90
        8
176
     1
 62
   257
176
     1
 40
1.0
176
     1
 90
        1
176
     1
 90
        6
176
     1
 90
        2
176
     1
 62
     8
420
  7895160
176
     1
 90
        3
176
     1
 90
        0
176
     1
 90
        0
176
     1
290
     0
176
     1
 90
        5
176
     1
 40
0.0
176
     1
 90
        0
176
     1
290
     0
176
     1
290
     1
176
     1
290
     1
176
     1
290
     0
176
     1
290
     0
176
     1
290
     0
176
     1
290
     0
176
     1
290
     0
176
     1
290
     0
176
     1
 90
       50
176
     1
 40
0.0
176
     1
 40
1.0
176
     1
 90
        0
176
     1
 62
    18
420
        0
176
     1
 90
       50
176
     1
 90
        3
176
     1
 62
     5
420
      255
176
     1
290
     0
176
     1
 90
       50
176
     1
 90
       50
176
     1
 90
       50
176
     1
290
     0
176
     1
 90
       50
176
     1
 62
   256
176
     0
 40
1.0
176
     0
 90
        2
176
     1
  1
strokes_ogs.tif
176
     1
290
     0
176
     1
 40
1.0
176
     1
 40
1.0
176
     1
1001
ACAD
1000
AcDbSavedByObjectVersion
1070
     0
  0
VISUALSTYLE
  5
10031
102
{ACAD_REACTORS
330
1001D
102
}
330
1001D
100
AcDbVisualStyle
  2
Shaded with edges
 70
    26
177
     3
291
     0
 70
    58
 90
        2
176
     1
 90
        2
176
     1
 90
        1
176
     1
 90
        2
176
     1
 40
0.6
176
     1
 40
30.0
176
     1
 62
     7
420
 16777215
176
     1
 90
        1
176
     1
 90
        2
176
     1
 62
     7
176
     1
 62
   257
176
     1
 90
        2
176
     1
 90
        1
176
     1
 40
1.0
176
     1
 90
        8
176
     1
 62
   257
176
     1
 40
1.0
176
     1
 90
        1
176
     1
 90
        6
176
     1
 90
        2
176
     1
 62
     7
176
     1
 90
        3
176
     1
 90
        0
176
     1
 90
        0
176
     1
290
     0
176
     1
 90
        5
176
     1
 40
0.0
176
     1
 90
        0
176
     1
290
     0
176
     1
290
     1
176
     1
290
     1
176
     1
290
     0
176
     1
290
     0
176
     1
290
     0
176
     1
290
     0
176
     1
290
     0
176
     1
290
     0
176
     1
 90
       50
176
     1
 40
0.0
176
     1
 40
1.0
176
     1
 90
        0
176
     1
 62
    18
420
        0
176
     1
 90
       50
176
     1
 90
        3
176
     1
 62
     5
420
      255
176
     1
290
     0
176
     1
 90
       50
176
     1
 90
       50
176
     1
 90
       50
176
     1
290
     0
176
     1
 90
       50
176
     1
 62
   256
176
     0
 40
1.0
176
     0
 90
        2
176
     1
  1
strokes_ogs.tif
176
     1
290
     0
176
     1
 40
1.0
176
     1
 40
1.0
176
     1
1001
ACAD
1000
AcDbSavedByObjectVersion
1070
     0
  0
VISUALSTYLE
  5
1002E
102
{ACAD_REACTORS
330
1001D
102
}
330
1001D
100
AcDbVisualStyle
  2
Shades of Gray
 70
    23
177
     3
291
     0
 70
    58
 90
        2
176
     1
 90
        2
176
     1
 90
        3
176
     1
 90
        0
176
     1
 40
0.6
176
     1
 40
30.0
176
     1
 62
     7
420
 16777215
176
     1
 90
        2
176
     1
 90
        2
176
     1
 62
     7
176
     1
 62
     7
176
     1
 90
        1
176
     1
 90
        1
176
     1
 40
40.0
176
     1
 90
        8
176
     1
 62
     7
176
     1
 40
1.0
176
     1
 90
        1
176
     1
 90
        6
176
     1
 90
        2
176
     1
 62
     7
176
     1
 90
        3
176
     1
 90
        0
176
     1
 90
        0
176
     1
290
     0
176
     1
 90
        1
176
     1
 40
0.0
176
     1
 90
        0
176
     1
290
     0
176
     1
290
     1
176
     1
290
     1
176
     1
290
     0
176
     1
290
     0
176
     1
290
     0
176
     1
290
     0
176
     1
290
     0
176
     1
290
     0
176
     1
 90
       50
176
     1
 40
0.0
176
     1
 40
1.0
176
     1
 90
        0
176
     1
 62
    18
420
        0
176
     1
 90
       50
176
     1
 90
        3
176
     1
 62
     5
420
      255
176
     1
290
     0
176
     1
 90
       50
176
     1
 90
       50
176
     1
 90
       50
176
     1
290
     0
176
     1
 90
       50
176
     1
 62
   256
176
     0
 40
1.0
176
     0
 90
        2
176
     1
  1
strokes_ogs.tif
176
     1
290
     0
176
     1
 40
1.0
176
     1
 40
1.0
176
     1
1001
ACAD
1000
AcDbSavedByObjectVersion
1070
     0
  0
VISUALSTYLE
  5
1002F
102
{ACAD_REACTORS
330
1001D
102
}
330
1001D
100
AcDbVisualStyle
  2
Sketchy
 70
    24
177
     3
291
     0
 70
    58
 90
        1
176
     1
 90
        2
176
     1
 90
        2
176
     1
 90
        0
176
     1
 40
0.6
176
     1
 40
30.0
176
     1
 62
     7
420
 16777215
176
     1
 90
        2
176
     1
 90
        2
176
     1
 62
     7
176
     1
 62
     7
176
     1
 90
        1
176
     1
 90
        1
176
     1
 40
40.0
176
     1
 90
       11
176
     1
 62
     7
176
     1
 40
1.0
176
     1
 90
        1
176
     1
 90
        6
176
     1
 90
        2
176
     1
 62
     7
176
     1
 90
        6
176
     1
 90
        0
176
     1
 90
        0
176
     1
290
     0
176
     1
 90
        1
176
     1
 40
0.0
176
     1
 90
        0
176
     1
290
     0
176
     1
290
     1
176
     1
290
     1
176
     1
290
     0
176
     1
290
     0
176
     1
290
     0
176
     1
290
     0
176
     1
290
     0
176
     1
290
     0
176
     1
 90
       50
176
     1
 40
0.0
176
     1
 40
1.0
176
     1
 90
        0
176
     1
 62
    18
420
        0
176
     1
 90
       50
176
     1
 90
        3
176
     1
 62
     5
420
      255
176
     1
290
     0
176
     1
 90
       50
176
     1
 90
       50
176
     1
 90
       50
176
     1
290
     0
176
     1
 90
       50
176
     1
 62
   256
176
     0
 40
1.0
176
     0
 90
        2
176
     1
  1
strokes_ogs.tif
176
     1
290
     0
176
     1
 40
1.0
176
     1
 40
1.0
176
     1
1001
ACAD
1000
AcDbSavedByObjectVersion
1070
     0
  0
VISUALSTYLE
  5
1002A
102
{ACAD_REACTORS
330
1001D
102
}
330
1001D
100
AcDbVisualStyle
  2
Thicken
 70
    13
177
     3
291
     1
 70
    58
 90
        2
176
     1
 90
        2
176
     1
 90
        0
176
     1
 90
        0
176
     1
 40
0.6
176
     1
 40
30.0
176
     1
 62
     7
420
 16777215
176
     1
 90
        1
176
     1
 90
        4
176
     1
 62
     7
176
     1
 62
   257
176
     1
 90
        1
176
     1
 90
        1
176
     1
 40
1.0
176
     1
 90
       12
176
     1
 62
     7
176
     1
 40
1.0
176
     1
 90
        1
176
     1
 90
        6
176
     1
 90
        2
176
     1
 62
     7
176
     1
 90
        5
176
     1
 90
        0
176
     1
 90
        0
176
     1
290
     0
176
     1
 90
        1
176
     1
 40
0.0
176
     1
 90
        0
176
     1
290
     0
176
     1
290
     1
176
     1
290
     1
176
     1
290
     0
176
     1
290
     0
176
     1
290
     0
176
     1
290
     0
176
     1
290
     0
176
     1
290
     0
176
     1
 90
       50
176
     1
 40
0.0
176
     1
 40
1.0
176
     1
 90
        0
176
     1
 62
    18
420
        0
176
     1
 90
       50
176
     1
 90
        3
176
     1
 62
     5
420
      255
176
     1
290
     0
176
     1
 90
       50
176
     1
 90
       50
176
     1
 90
       50
176
     1
290
     0
176
     1
 90
       50
176
     1
 62
   256
176
     0
 40
1.0
176
     0
 90
        2
176
     1
  1
strokes_ogs.tif
176
     1
290
     0
176
     1
 40
1.0
176
     1
 40
1.0
176
     1
1001
ACAD
1000
AcDbSavedByObjectVersion
1070
     0
  0
VISUALSTYLE
  5
10024
102
{ACAD_REACTORS
330
1001D
102
}
330
1001D
100
AcDbVisualStyle
  2
Wireframe
 70
     5
177
     3
291
     0
 70
    58
 90
        0
176
     1
 90
        2
176
     1
 90
        0
176
     1
 90
        0
176
     1
 40
0.6
176
     1
 40
30.0
176
     1
 62
     7
420
 16777215
176
     1
 90
        1
176
     1
 90
        4
176
     1
 62
     7
176
     1
 62
   257
176
     1
 90
        1
176
     1
 90
        1
176
     1
 40
1.0
176
     1
 90
        0
176
     1
 62
   257
176
     1
 40
1.0
176
     1
 90
        1
176
     1
 90
        6
176
     1
 90
        2
176
     1
 62
     7
176
     1
 90
        3
176
     1
 90
        0
176
     1
 90
        0
176
     1
290
     0
176
     1
 90
        1
176
     1
 40
0.0
176
     1
 90
        0
176
     1
290
     0
176
     1
290
     1
176
     1
290
     1
176
     1
290
     0
176
     1
290
     0
176
     1
290
     0
176
     1
290
     0
176
     1
290
     0
176
     1
290
     0
176
     1
 90
       50
176
     1
 40
0.0
176
     1
 40
1.0
176
     1
 90
        0
176
     1
 62
    18
420
        0
176
     1
 90
       50
176
     1
 90
        3
176
     1
 62
     5
420
      255
176
     1
290
     0
176
     1
 90
       50
176
     1
 90
       50
176
     1
 90
       50
176
     1
290
     0
176
     1
 90
       50
176
     1
 62
   256
176
     0
 40
1.0
176
     0
 90
        2
176
     1
  1
strokes_ogs.tif
176
     1
290
     0
176
     1
 40
1.0
176
     1
 40
1.0
176
     1
1001
ACAD
1000
AcDbSavedByObjectVersion
1070
     0
  0
VISUALSTYLE
  5
10030
102
{ACAD_REACTORS
330
1001D
102
}
330
1001D
100
AcDbVisualStyle
  2
X-Ray
 70
    25
177
     3
291
     0
 70
    58
 90
        2
176
     1
 90
        2
176
     1
 90
        1
176
     1
 90
        1
176
     1
 40
0.5
176
     1
 40
30.0
176
     1
 62
     7
420
 16777215
176
     1
 90
        1
176
     1
 90
        0
176
     1
 62
     7
176
     1
 62
   257
176
     1
 90
        1
176
     1
 90
        1
176
     1
 40
1.0
176
     1
 90
        8
176
     1
 62
     7
176
     1
 40
1.0
176
     1
 90
        1
176
     1
 90
        6
176
     1
 90
        2
176
     1
 62
     7
176
     1
 90
        3
176
     1
 90
        0
176
     1
 90
        0
176
     1
290
     0
176
     1
 90
       13
176
     1
 40
0.0
176
     1
 90
        0
176
     1
290
     0
176
     1
290
     1
176
     1
290
     1
176
     1
290
     0
176
     1
290
     0
176
     1
290
     0
176
     1
290
     0
176
     1
290
     0
176
     1
290
     0
176
     1
 90
       50
176
     1
 40
0.0
176
     1
 40
1.0
176
     1
 90
        0
176
     1
 62
    18
420
        0
176
     1
 90
       50
176
     1
 90
        3
176
     1
 62
     5
420
      255
176
     1
290
     0
176
     1
 90
       50
176
     1
 90
       50
176
     1
 90
       50
176
     1
290
     0
176
     1
 90
       50
176
     1
 62
   256
176
     0
 40
1.0
176
     0
 90
        2
176
     1
  1
strokes_ogs.tif
176
     1
290
     0
176
     1
 40
1.0
176
     1
 40
1.0
176
     1
1001
ACAD
1000
AcDbSavedByObjectVersion
1070
     0
  0
DICTIONARYVAR
  5
10286
102
{ACAD_REACTORS
330
10280
102
}
330
10280
100
DictionaryVariables
280
     0
  1
1:1
  0
DICTIONARYVAR
  5
10282
102
{ACAD_REACTORS
330
10280
102
}
330
10280
100
DictionaryVariables
280
     0
  1
STANDARD
  0
DICTIONARYVAR
  5
10281
102
{ACAD_REACTORS
330
10280
102
}
330
10280
100
DictionaryVariables
280
     0
  1
STANDARD
  0
DICTIONARYVAR
  5
10283
102
{ACAD_REACTORS
330
10280
102
}
330
10280
100
DictionaryVariables
280
     0
  1
Imperial24
  0
DICTIONARYVAR
  5
10284
102
{ACAD_REACTORS
330
10280
102
}
330
10280
100
DictionaryVariables
280
     0
  1
Imperial24
  0
DICTIONARYVAR
  5
10288
102
{ACAD_REACTORS
330
10280
102
}
330
10280
100
DictionaryVariables
280
     0
  1
1
  0
DICTIONARYVAR
  5
10289
102
{ACAD_REACTORS
330
10280
102
}
330
10280
100
DictionaryVariables
280
     0
  1
15
  0
DICTIONARYVAR
  5
10287
102
{ACAD_REACTORS
330
10280
102
}
330
10280
100
DictionaryVariables
280
     0
  1
0
  0
DICTIONARYVAR
  5
10285
102
{ACAD_REACTORS
330
10280
102
}
330
10280
100
DictionaryVariables
280
     0
  1
0
  0
DICTIONARY
  5
1029E
102
{ACAD_REACTORS
330
1029C
102
}
330
1029C
100
AcDbDictionary
281
     1
  0
DICTIONARY
  5
1029D
102
{ACAD_REACTORS
330
1029C
102
}
330
1029C
100
AcDbDictionary
281
     1
  3
140289557986544
350
10297
  3
140289557986560
350
10298
  3
140289557986576
350
10299
  3
140289557986592
350
1029A
  3
140289557986608
350
1029B
  0
DICTIONARY
  5
102A1
330
10052
100
AcDbDictionary
280
     1
281
     1
  3
ACAD_XREC_ROUNDTRIP
360
102A2
  0
DICTIONARY
  5
1000E
330
1000D
100
AcDbDictionary
280
     1
281
     1
  3
BUMPTILE
360
10010
  3
DIFFUSETILE
360
1000F
  3
OPACITYTILE
360
10013
  3
REFLECTIONTILE
360
10012
  3
REFRACTIONTILE
360
10014
  3
SPECULARTILE
360
10011
  0
DICTIONARY
  5
10006
330
10005
100
AcDbDictionary
280
     1
281
     1
  3
BUMPTILE
360
10008
  3
DIFFUSETILE
360
10007
  3
OPACITYTILE
360
1000B
  3
REFLECTIONTILE
360
1000A
  3
REFRACTIONTILE
360
1000C
  3
SPECULARTILE
360
10009
  0
DICTIONARY
  5
10016
330
10015
100
AcDbDictionary
280
     1
281
     1
  3
BUMPTILE
360
10018
  3
DIFFUSETILE
360
10017
  3
OPACITYTILE
360
1001B
  3
REFLECTIONTILE
360
1001A
  3
REFRACTIONTILE
360
1001C
  3
SPECULARTILE
360
10019
  0
DICTIONARY
  5
1029F
330
10050
100
AcDbDictionary
280
     1
281
     1
  3
ACAD_XREC_ROUNDTRIP
360
102A0
  0
DICTIONARY
  5
10294
330
10039
100
AcDbDictionary
280
     1
281
     1
  3
ACAD_ROUNDTRIP_2008_TABLESTYLE_CELLSTYLEMAP
360
10295
  0
XRECORD
  5
10297
102
{ACAD_REACTORS
330
1029D
102
}
330
1029D
100
AcDbXrecord
280
     1
  1
AcDb_Thumbnail_Schema
102
{ATTRRECORD
341
10298
  2
AcDbDs::TreatedAsObjectData
280
     1
291
     1
102
ATTRRECORD}
102
{ATTRRECORD
341
10299
  2
AcDbDs::Legacy
280
     1
291
     1
102
ATTRRECORD}
  2
AcDbDs::ID
280
    10
 91
        8
102
{ATTRRECORD
341
1029A
  2
AcDs:Indexable
280
     1
291
     1
102
ATTRRECORD}
102
{ATTRRECORD
341
1029B
  2
AcDbDs::HandleAttribute
280
     7
282
     1
102
ATTRRECORD}
  2
Thumbnail_Data
280
    15
 91
        0
  0
XRECORD
  5
10298
102
{ACAD_REACTORS
330
1029D
102
}
330
1029D
100
AcDbXrecord
280
     1
  1
AcDbDs::TreatedAsObjectDataSchema
  2
AcDbDs::TreatedAsObjectData
280
     1
 91
        0
  0
XRECORD
  5
10299
102
{ACAD_REACTORS
330
1029D
102
}
330
1029D
100
AcDbXrecord
280
     1
  1
AcDbDs::LegacySchema
  2
AcDbDs::Legacy
280
     1
 91
        0
  0
XRECORD
  5
1029A
102
{ACAD_REACTORS
330
1029D
102
}
330
1029D
100
AcDbXrecord
280
     1
  1
AcDbDs::IndexedPropertySchema
  2
AcDs:Indexable
280
     1
 91
        0
  0
XRECORD
  5
1029B
102
{ACAD_REACTORS
330
1029D
102
}
330
1029D
100
AcDbXrecord
280
     1
  1
AcDbDs::HandleAttributeSchema
  2
AcDbDs::HandleAttribute
280
     7
 91
        1
284
     1
  0
XRECORD
  5
102A2
102
{ACAD_REACTORS
330
102A1
102
}
330
102A1
100
AcDbXrecord
280
     1
102
DISPLAYNAME
  1
Imperial24
102
FLAGS
 90
        0
  0
XRECORD
  5
10010
102
{ACAD_REACTORS
330
1000E
102
}
330
1000E
100
AcDbXrecord
280
     1
270
     1
271
     1
  0
XRECORD
  5
1000F
102
{ACAD_REACTORS
330
1000E
102
}
330
1000E
100
AcDbXrecord
280
     1
270
     1
271
     1
  0
XRECORD
  5
10013
102
{ACAD_REACTORS
330
1000E
102
}
330
1000E
100
AcDbXrecord
280
     1
270
     1
271
     1
  0
XRECORD
  5
10012
102
{ACAD_REACTORS
330
1000E
102
}
330
1000E
100
AcDbXrecord
280
     1
270
     1
271
     1
  0
XRECORD
  5
10014
102
{ACAD_REACTORS
330
1000E
102
}
330
1000E
100
AcDbXrecord
280
     1
270
     1
271
     1
  0
XRECORD
  5
10011
102
{ACAD_REACTORS
330
1000E
102
}
330
1000E
100
AcDbXrecord
280
     1
270
     1
271
     1
  0
XRECORD
  5
10008
102
{ACAD_REACTORS
330
10006
102
}
330
10006
100
AcDbXrecord
280
     1
270
     1
271
     1
  0
XRECORD
  5
10007
102
{ACAD_REACTORS
330
10006
102
}
330
10006
100
AcDbXrecord
280
     1
270
     1
271
     1
  0
XRECORD
  5
1000B
102
{ACAD_REACTORS
330
10006
102
}
330
10006
100
AcDbXrecord
280
     1
270
     1
271
     1
  0
XRECORD
  5
1000A
102
{ACAD_REACTORS
330
10006
102
}
330
10006
100
AcDbXrecord
280
     1
270
     1
271
     1
  0
XRECORD
  5
1000C
102
{ACAD_REACTORS
330
10006
102
}
330
10006
100
AcDbXrecord
280
     1
270
     1
271
     1
  0
XRECORD
  5
10009
102
{ACAD_REACTORS
330
10006
102
}
330
10006
100
AcDbXrecord
280
     1
270
     1
271
     1
  0
XRECORD
  5
10018
102
{ACAD_REACTORS
330
10016
102
}
330
10016
100
AcDbXrecord
280
     1
270
     1
271
     1
  0
XRECORD
  5
10017
102
{ACAD_REACTORS
330
10016
102
}
330
10016
100
AcDbXrecord
280
     1
270
     1
271
     1
  0
XRECORD
  5
1001B
102
{ACAD_REACTORS
330
10016
102
}
330
10016
100
AcDbXrecord
280
     1
270
     1
271
     1
  0
XRECORD
  5
1001A
102
{ACAD_REACTORS
330
10016
102
}
330
10016
100
AcDbXrecord
280
     1
270
     1
271
     1
  0
XRECORD
  5
1001C
102
{ACAD_REACTORS
330
10016
102
}
330
10016
100
AcDbXrecord
280
     1
270
     1
271
     1
  0
XRECORD
  5
10019
102
{ACAD_REACTORS
330
10016
102
}
330
10016
100
AcDbXrecord
280
     1
270
     1
271
     1
  0
XRECORD
  5
102A0
102
{ACAD_REACTORS
330
1029F
102
}
330
1029F
100
AcDbXrecord
280
     1
102
DISPLAYNAME
  1
Imperial24
102
FLAGS
 90
        0
  0
CELLSTYLEMAP
  5
10295
102
{ACAD_REACTORS
330
10294
102
}
330
10294
100
AcDbCellStyleMap
 90
        3
300
CELLSTYLE
  1
TABLEFORMAT_BEGIN
 90
        5
170
     1
 91
        0
 92
    32768
 62
   257
 93
        1
300
CONTENTFORMAT
  1
CONTENTFORMAT_BEGIN
 90
        0
 91
        0
 92
      512
 93
        0
300

 40
0.0
140
1.0
 94
        5
 62
     0
340
11
144
0.25
309
CONTENTFORMAT_END
171
     0
 94
        0
309
TABLEFORMAT_END
  1
CELLSTYLE_BEGIN
 90
        1
 91
        1
300
_TITLE
309
CELLSTYLE_END
300
CELLSTYLE
  1
TABLEFORMAT_BEGIN
 90
        5
170
     1
 91
        0
 92
        0
 62
   257
 93
        1
300
CONTENTFORMAT
  1
CONTENTFORMAT_BEGIN
 90
        0
 91
        0
 92
      512
 93
        0
300

 40
0.0
140
1.0
 94
        5
 62
     0
340
11
144
0.18
309
CONTENTFORMAT_END
171
     0
 94
        0
309
TABLEFORMAT_END
  1
CELLSTYLE_BEGIN
 90
        2
 91
        1
300
_HEADER
309
CELLSTYLE_END
300
CELLSTYLE
  1
TABLEFORMAT_BEGIN
 90
        5
170
     1
 91
        0
 92
        0
 62
   257
 93
        1
300
CONTENTFORMAT
  1
CONTENTFORMAT_BEGIN
 90
        0
 91
        0
 92
      512
 93
        0
300

 40
0.0
140
1.0
 94
        2
 62
     0
340
11
144
0.18
309
CONTENTFORMAT_END
171
     0
 94
        0
309
TABLEFORMAT_END
  1
CELLSTYLE_BEGIN
 90
        3
 91
        2
300
_DATA
309
CELLSTYLE_END
  0
ENDSEC
  0
SECTION
  2
ACDSDATA
 70
     2
 71
     8
  0
ACDSSCHEMA
 90
        0
  1
AcDb_Thumbnail_Schema
  2
AcDbDs::ID
280
    10
 91
        8
  2
Thumbnail_Data
280
    15
 91
        0
101
ACDSRECORD
 95
        0
 90
        1
  2
AcDbDs::TreatedAsObjectData
280
     1
291
     1
101
ACDSRECORD
 95
        0
 90
        2
  2
AcDbDs::Legacy
280
     1
291
     1
101
ACDSRECORD
  1
AcDbDs::ID
 90
        3
  2
AcDs:Indexable
280
     1
291
     1
101
ACDSRECORD
  1
AcDbDs::ID
 90
        4
  2
AcDbDs::HandleAttribute
280
     7
282
     1
  0
ACDSSCHEMA
 90
        1
  1
AcDbDs::TreatedAsObjectDataSchema
  2
AcDbDs::TreatedAsObjectData
280
     1
 91
        0
  0
ACDSSCHEMA
 90
        2
  1
AcDbDs::LegacySchema
  2
AcDbDs::Legacy
280
     1
 91
        0
  0
ACDSSCHEMA
 90
        3
  1
AcDbDs::IndexedPropertySchema
  2
AcDs:Indexable
280
     1
 91
        0
  0
ACDSSCHEMA
 90
        4
  1
AcDbDs::HandleAttributeSchema
  2
AcDbDs::HandleAttribute
280
     7
 91
        1
284
     1
  0
ACDSRECORD
 90
        0
  2
AcDbDs::ID
280
    10
320
10055
  2
Thumbnail_Data
280
    15
 94
     2896
310
89504E470D0A1A0A0000000D4948445200000100000000C508030000008CFEDCE700000300504C5445212830FFFFFF2128300000000000000000000000000000000000000000000000000000330000660000990000CC0000FF0033000033330033660033990033CC0033FF0066000066330066660066990066CC0066FF0099
310
000099330099660099990099CC0099FF00CC0000CC3300CC6600CC9900CCCC00CCFF00FF0000FF3300FF6600FF9900FFCC00FFFF3300003300333300663300993300CC3300FF3333003333333333663333993333CC3333FF3366003366333366663366993366CC3366FF3399003399333399663399993399CC3399FF33CC00
310
33CC3333CC6633CC9933CCCC33CCFF33FF0033FF3333FF6633FF9933FFCC33FFFF6600006600336600666600996600CC6600FF6633006633336633666633996633CC6633FF6666006666336666666666996666CC6666FF6699006699336699666699996699CC6699FF66CC0066CC3366CC6666CC9966CCCC66CCFF66FF0066
310
FF3366FF6666FF9966FFCC66FFFF9900009900339900669900999900CC9900FF9933009933339933669933999933CC9933FF9966009966339966669966999966CC9966FF9999009999339999669999999999CC9999FF99CC0099CC3399CC6699CC9999CCCC99CCFF99FF0099FF3399FF6699FF9999FFCC99FFFFCC0000CC00
310
33CC0066CC0099CC00CCCC00FFCC3300CC3333CC3366CC3399CC33CCCC33FFCC6600CC6633CC6666CC6699CC66CCCC66FFCC9900CC9933CC9966CC9999CC99CCCC99FFCCCC00CCCC33CCCC66CCCC99CCCCCCCCCCFFCCFF00CCFF33CCFF66CCFF99CCFFCCCCFFFFFF0000FF0033FF0066FF0099FF00CCFF00FFFF3300FF3333
310
FF3366FF3399FF33CCFF33FFFF6600FF6633FF6666FF6699FF66CCFF66FFFF9900FF9933FF9966FF9999FF99CCFF99FFFFCC00FFCC33FFCC66FFCC99FFCCCCFFCCFFFFFF00FFFF33FFFF66FFFF99FFFFCCFFFFFF0000000D0D0D1A1A1A2828283535354343435050505D5D5D6B6B6B787878868686939393A1A1A1AEAEAEBB
310
BBBBC9C9C9D6D6D6E4E4E4F1F1F1FFFFFF0000000000000000000000000000000000000000000000000000000000002E4550F10000053E4944415478DAED5CC196E3200CF3FFFFAFEEFBDECE24B18D1B4C924E0D950EB34BDBC914818DAC404408822008822008822008822008822008822008822008822008822008822088
310
06F80FFBBFDB97C323D77AB283EA2BB9362216D4073C3FC1BBE6EAFA4FD720C0B221765CE0BFA51BB69FF7153FAE87F07F6AE3AA1201BF23FD3362B28FE9DEEE1360E6D3CBD646EFEFC59B6B2D42C01E0D5153B08F3B50640A743A748580638243CDFADF4F43CF87320434311CC7743204704C7835E2C72B71807C701590AD
310
AF5B086CA3772104D42BB0535ECD89F0521F2740540E501D2001574340660B818708D8F3EA36DE50CD9249F0790244A9CA5626955B06DF40C0C9A7A1964A945906ED246DDBCF29C15D39D7AA05BA04E054DB0DD702E58AA15302C242D0557F03D560C572D8E5004BC0B3C5366620C0264109C754CDFBB32E362100A917027D
310
02DAA85631EFA3BA530E4BBD24D823E02CAF0B8EACA8BAF622638A328550460BF709082AFCD61112A37CB42654A3AD4D31C8244248820ADF11B08FAFD177FBAA2F5619BFCA085597411D0578418098B76D13DA0F3311044C42802970831C00B7E899961E71C75FB565D01B227BE79A0ADFA57D5BE13B3EEC0CA84AC0365807
310
0138BCDB3102DC0CF039A0680804EAFDA8E2FB210033E74D0E10E510164E82671697EB443E0986B7952A2E8319029CC5D1EA80E647F46975091412425D02C695A0D87F9A49AF5CB20908B8530BB4D560C162C88C2C9AF6BD6AB0571E57114238D42ECCC0D7F88E7FAF04712F4F63089F174290B818BAFAEDC67EEBD30CBC26
310
4022172B33A0682643C3A7D18B1F0F01F8EA0D5AC960FC7A617D54960023657DFB55774CF4C2DDEE1AE95399C5A0532D9D12A02689222095F950B3C3DEC9EF657671D550FFBE57212DD86C7B0B23BAD31D3B9C1905518880179BA4763A90B88F8BA50918EE4E660F5C25026243C485C03001D3244153C61ED5DE21872FE480
310
FCCA56400B63EBACF2048FDB3BB8BC0ACC2484D42C70B580A484D0F44AF0D59DA12C018D12BC93850A1270C55F98A81ECECC8099CAFBE70958DE1091CEBDC1BBD2A27C0E90EECDD1470C91D3B4599B809131CC2E9C68B5671D02EE2F83F329C17B3AC0BB27F95AA0C29A91240059292CA9F2A99621922060654324A50433DD
310
C1D71320794304B50C919E0E188CE8C992608A8053067C77E6BA2F10EC12DBF76FDC5905E65182C071A4EBD81FFCFBF2255DD797C2D59460BB41A2E7EF7494E0D8089474851501EF3644A43A01AB1B223D02560709B04B78B04BECBD86588D1CA0EE04F9231FE3BD99CB1193F6190FF6F43306473F5837A5B20E72479AF479
310
E15D130E76A74F40251D14ED12B3040C8FE7B876FE7408980DECCD21A86183AF5F0D0385D618B86D8162778DED4747F2B56D7A434199738327A77BB7B333032BE90507E5B3FD772DB765263354880CA1596600F48E5891980019DAEF33570E0808F053623804A65A05FC1332BC34BE9A04CF7540353BA07904868EFE6BCBE0
310
344AD01E14D54208ED61CFA4101A9977850910E0B2149E69874C8F80F16268363BE09C0059DC10EB13B0BE21F43801B3E500F7237E90D2BA8E508F80E51DA12E01AB3B4201014E072CEE08F585D0E28E508E80851DA124010B3B42995A606D4728530CADED087596C16F70844202A0084875675647C887803D45F6258E907E
310
94967248DFE60855AB05443F0FFC6482AEE908F909E167F5F28ED039015FE008750858DF112201129D1E2FF5E8DFF70B21F7282D7CD1A3B4D493B31E3B383919017E8F906B7F1F01CDB3C5172720789496BD35BE3E03CD26A9AB329020088220088220088220088220088220088220088220088220088220088220883FC63F
310
B98725F219646B3B0000000049454E44AE42608270D135F57602CEDAE464ADC66F123042C0699FE00F4C0167FBC4BA4F9020088220088220088220088220088220088220088220088220088220088220088220887CF807AA118352495FC3CC0000000049454E44AE42608208985C2B1EDB1637103019052267824602E6F280
310
130878C416DF3106D8A2C0B41698F25443A4C24BD4205C3D68D7D1DA1E02E6B64E87F4045D04F82CB16FB0C56F25E03B5C61971C9E7585C313807B09083908BAF2801D6BC57787411F0167DAE2F28BFFDA99A0BB0ABFCA15FE8CF8F517B10ECB21841743E0A7DBF3AF9461278B2DD002A1E530D5B3400A4DB3B6F8F812A1E7
310
A6C6FA65DE7126AC2D6E24E0D0C5E26602CE3645938024E0E709D0D707ECFDFED72709284FD257BE20E47002342D80B533435F41005383D562E99F991C6562E8B70920F9758827770128CBE5F1330488E3F54B6D48BBBEF028914824128944229148241289442291482412894422E1C51FF4E29538BBB3A560000000004945
310
4E44AE4260820B009208873CD9D56C8F58AD0BC1FA1FC899038D4E78BAD5C867FBE05670B29E28488F0919702DCB4F7796EBB647CCC5E50E00F4C726B702D006A9F29AC7C5079CEFB23DA273C0927CF8D033B6478C3ACD669297F36B3C8FE7072C2786FDED115B9CA0D6C6261D38968D1EB13DC205803C02C27CC0CE40C872
310
6837BD18B90AF886C24641683380BDDB23662A6335805A130C8D0437A6C38683FB59C01C9C0B6C14449417A675DF2C1C960DEE94C4AAF7E69C77881C77CB9C3380583D60A728CADB58C201949BEC0F590210A409EE2D8C5C056058BB8CB26900717581A700286FD81EB204E01D960012006D23F80B72F7BC5E60FB3228B6F1
310
1A00FB03A1590041DDF41400116F81B828199A02F096FD01570108DB1F307882C8128087EC0FB04962BB0158F70794D5E5CE228AAA71C0981EE0E403CAD02B1395AE3615793D0591C5E0A71245830A23FF0054006BE9AAF7D87A0000000049454E44AE426082
  0
ENDSEC
  0
EOF
